<svg width="647" height="158" viewBox="0 0 647 158" fill="none" xmlns="http://www.w3.org/2000/svg">
<path d="M329.122 66.9533C326.721 66.9533 325.894 66.2084 326.335 64.2774L330.501 47.9168H355.138L357.925 37.1846H333.288L336.074 26.2868C336.819 23.4451 338.833 21.0172 342.806 21.0172H362.532L365.318 10.285H336.654C324.763 10.285 321.204 12.4094 316.569 30.2872L308.072 62.9805C305.451 73.9613 308.706 78.7339 317.673 78.7339H342.392C347.248 78.7339 350.393 76.1406 351.91 72.1677L353.952 66.9533H329.122Z" fill="black"></path>
<path d="M610.806 66.9533C608.403 66.9533 607.577 66.2084 608.017 64.2774L612.182 47.9168H636.822L639.606 37.1846H614.971L617.755 26.2868C618.499 23.4451 620.516 21.0172 624.485 21.0172H644.216L647 10.285H618.363C606.473 10.285 602.912 12.4094 598.279 30.2872L589.781 62.9805C587.161 73.9613 590.417 78.7339 599.383 78.7339H624.099C628.96 78.7339 632.103 76.1406 633.62 72.1677L635.664 66.9533H610.806Z" fill="black"></path>
<path d="M221.029 10.285H196.392L179.232 76.6926C178.929 77.8238 179.591 78.7339 180.722 78.7339H202.683C230.272 78.7339 234.906 73.4646 242.466 44.2198C249.004 18.8101 244.949 10.285 221.029 10.285ZM205.249 67.0636H200.2L212.09 21.0448C213.608 21.0448 214.187 20.9621 217.994 20.9621C228.671 20.9621 228.672 24.4935 223.567 44.2198C218.408 64.1943 215.401 67.0636 205.249 67.0636Z" fill="black"></path>
<path d="M565.859 10.1451C551.652 10.1451 545.057 10.4485 541.196 10.283L524.009 76.6904C523.706 77.8216 524.367 78.7323 525.499 78.7323H541.969L556.893 21.0153C558.41 21.0153 560.732 20.8773 563.075 20.8773C571.073 20.8773 572.122 23.719 570.029 31.8855L558.437 76.6627C558.138 77.7939 558.796 78.7046 559.927 78.7046H576.401L588.509 31.8855C592.652 15.6905 585.529 10.1451 565.859 10.1451Z" fill="black"></path>
<path d="M423.201 10.285L420.359 21.4035H438.651C438.844 21.4035 438.844 21.6242 438.679 21.7621C435.754 23.9693 433.961 27.1145 433.133 30.37L421.132 76.6926C420.828 77.8238 421.518 78.7339 422.622 78.7339H440.306L455.176 21.4035H464.226C469.302 21.4035 472.392 19.2791 474.13 14.8372L475.868 10.285H423.201Z" fill="black"></path>
<path d="M166.762 78.76L183.95 12.3525C184.253 11.2213 183.591 10.3109 182.46 10.3109H165.051L147.863 76.7187C147.56 77.8493 148.222 78.76 149.353 78.76H166.762Z" fill="black"></path>
<path d="M504.117 9.34316C483.398 9.34316 474.404 13.0402 466.238 44.5196C459.175 71.8053 464.831 79.6961 485.909 79.6961C507.345 79.6961 515.843 75.2816 523.788 44.5196C529.554 22.255 528.396 9.34316 504.117 9.34316ZM488.916 68.191C481.026 68.191 479.84 65.3217 485.357 43.9678C489.937 26.2002 494.323 20.0203 501.386 20.0203C509.277 20.0203 510.159 24.269 505.055 43.9678C500.007 63.501 495.013 68.191 488.916 68.191Z" fill="black"></path>
<path d="M10.7751 45.0473L21.5071 7.44301C22.5555 3.58051 26.8318 0.0490804 31.1357 0.0490804H63.9388C64.4907 0.0490804 64.656 0.766399 64.2422 1.06988C47.1923 12.7402 26.6387 30.0387 11.7131 45.5439C11.3269 45.9301 10.6372 45.599 10.7751 45.0473Z" fill="#ED1C24"></path>
<path d="M36.6798 67.6157L47.3015 30.5079C47.4671 29.9561 46.8601 29.5423 46.3911 29.9285C30.7759 43.3645 11.9327 62.9805 0.152318 77.8238C-0.151159 78.2096 0.0143664 78.7893 0.510965 78.7893H46.4463C65.8135 78.7893 76.4074 72.8023 80.2699 58.4556C83.4152 46.7856 77.2904 38.8123 67.524 36.7431C67.3587 36.7155 67.1929 36.3844 67.524 36.3292C75.8007 34.9222 84.1323 31.5839 87.0846 19.5273C90.3125 6.47757 80.3253 -0.668055 68.8484 0.0492676L51.3019 61.5184C50.3639 64.8566 46.805 67.6434 43.4115 67.6434H36.6798" fill="black"></path>
<path d="M136.497 51.3086C135.891 49.267 135.228 47.7772 134.235 46.5633C134.097 46.3977 134.07 46.2046 134.318 46.1218C142.181 43.694 147.34 38.7279 149.52 30.3132C152.389 19.1671 145.381 10.3109 127.642 10.3109H101.294L84.1062 76.7187C83.8028 77.8493 84.465 78.76 85.5965 78.76H102.067L116.992 21.0431C118.592 21.0431 120.11 20.9603 123.917 20.9603C130.262 20.9603 132.607 24.878 131.256 30.1752C129.463 37.1277 124.055 41.0454 117.627 41.0454H115.199L122.041 74.1802C122.841 77.4082 124.469 78.7323 128.193 78.7323H142.898L136.497 51.3086Z" fill="black"></path>
<path d="M360.657 55.5558C353.677 72.2193 362.782 79.7793 381.293 79.7793C398.206 79.7793 407.586 75.751 411.586 60.2182C412.965 54.9212 412.082 49.1825 408.8 45.6235C402.482 38.7537 390.315 37.4571 386.039 33.4842C383.859 31.4702 383.887 28.6285 384.521 26.173C385.68 21.7036 388.687 19.2481 393.571 19.2481C401.212 19.2481 401.406 23.9383 399.53 29.5389H415.917C419.78 17.8962 414.731 8.76418 395.419 8.76418C379.169 8.76418 370.396 15.1373 367.251 27.3593C366.368 30.6977 366.699 36.188 368.713 39.609C373.183 47.2513 384.991 48.2169 391.529 52.7415C394.37 54.7278 394.453 57.3765 393.708 60.3008C392.246 66.0117 389.377 68.7159 383.666 68.7159C378.176 68.7159 374.893 65.5151 378.038 55.5281H360.657" fill="black"></path>
<path d="M285.229 44.6593L279.076 67.2826C277.779 67.3929 276.152 67.5858 273.641 67.5858C261.558 67.5858 262.909 63.9444 268.013 44.2454C273.31 23.7741 276.4 20.022 283.932 20.022C291.188 20.022 291.243 24.9053 289.394 31.0853H307.796C310.776 19.553 308.789 9.3173 287.27 9.3173C263.295 9.3173 256.784 14.3662 249.06 44.2454C241.859 72.0552 244.232 79.4218 270.138 79.4218C282.414 79.4218 287.574 78.5117 295.05 77.1593L303.713 44.6593H285.229Z" fill="black"></path>
<path d="M55.4403 136.912C54.6405 140.058 53.0127 142.513 50.6125 144.279C48.2123 146.044 45.0948 146.927 41.2599 146.927C40.3495 146.927 39.4114 146.872 38.3906 146.734C37.3699 146.596 36.4594 146.431 35.6042 146.21C34.749 145.989 34.0592 145.713 33.5074 145.41C32.9557 145.079 32.6798 144.72 32.7074 144.306V144.058L33.5626 140.665C33.673 140.14 34.004 139.864 34.5007 139.864C34.7765 139.864 35.0525 139.975 35.3559 140.223C35.6594 140.471 36.0732 140.72 36.625 140.996C37.1768 141.272 37.8665 141.548 38.7493 141.768C39.6322 142.016 40.7357 142.127 42.1151 142.127C44.3223 142.127 46.0052 141.63 47.1363 140.637C48.295 139.644 48.902 138.374 48.9572 136.83C48.9847 136.25 48.8468 135.699 48.5433 135.147C48.2399 134.595 47.7433 134.043 46.9984 133.464L42.0048 129.601C40.9012 128.718 40.0735 127.808 39.5494 126.815C38.9976 125.821 38.7769 124.663 38.8321 123.311C38.8596 122.952 38.8873 122.566 38.97 122.207C39.0252 121.848 39.108 121.462 39.1908 121.049C39.9908 117.959 41.591 115.669 44.0188 114.123C46.419 112.606 49.3986 111.834 52.9576 111.834C53.7852 111.834 54.6682 111.916 55.5507 112.027C56.4336 112.165 57.2611 112.358 58.0337 112.579C58.7786 112.827 59.4131 113.103 59.91 113.434C60.4064 113.765 60.6272 114.096 60.6272 114.427V114.593L59.717 118.234C59.6338 118.428 59.5512 118.621 59.4131 118.759C59.2755 118.897 59.082 118.979 58.834 118.979C58.5307 118.979 58.2267 118.869 57.8962 118.621C57.5651 118.4 57.1785 118.124 56.6821 117.821C56.1857 117.517 55.5507 117.241 54.7509 117.02C53.9507 116.772 52.9575 116.662 51.7161 116.662C50.3918 116.662 49.3158 116.855 48.5158 117.241C47.7157 117.627 47.1087 118.069 46.6673 118.566C46.2535 119.062 45.95 119.586 45.8121 120.11C45.6741 120.635 45.5913 121.076 45.5913 121.38C45.5638 122.014 45.7293 122.621 46.1155 123.2C46.5017 123.78 47.1915 124.415 48.1846 125.104L52.0195 127.808C53.4817 128.856 54.5024 129.85 55.1097 130.787C55.6888 131.753 55.965 132.884 55.9095 134.236C55.8269 135.092 55.6888 135.974 55.4403 136.912Z" fill="black"></path>
<path d="M85.6514 133.468C85.155 135.426 84.4379 137.22 83.4723 138.848C82.5066 140.503 81.348 141.91 79.9681 143.124C78.5888 144.338 77.0164 145.276 75.2233 145.938C73.4296 146.6 71.4435 146.959 69.2361 146.959C65.7048 146.959 63.0841 146.103 61.4286 144.421C59.7736 142.737 59.001 140.392 59.1391 137.441C59.194 136.254 59.387 134.985 59.7458 133.606C60.2422 131.647 60.9599 129.853 61.9255 128.226C62.8911 126.571 64.0497 125.163 65.4291 123.977C66.8085 122.791 68.3808 121.853 70.1745 121.191C71.9676 120.528 73.9537 120.197 76.1611 120.197C79.6925 120.197 82.3136 121.025 83.9686 122.708C85.6242 124.391 86.3963 126.708 86.2587 129.661C86.2032 130.847 86.0102 132.116 85.6514 133.468ZM79.1406 133.357C79.4995 131.95 79.7202 130.709 79.7474 129.633C79.8306 127.812 79.4717 126.515 78.6442 125.743C77.8162 124.943 76.6026 124.556 74.9748 124.556C72.8783 124.556 71.1124 125.274 69.6776 126.681C68.2433 128.088 67.1119 130.433 66.2566 133.744C65.8983 135.234 65.6776 136.475 65.6498 137.468C65.5672 139.289 65.9255 140.586 66.7258 141.386C67.5256 142.186 68.7674 142.6 70.4224 142.6C72.4917 142.6 74.2577 141.882 75.6919 140.476C77.1267 139.068 78.2854 136.696 79.1406 133.357Z" fill="black"></path>
<path d="M93.1821 145.607C93.0446 146.214 92.7135 146.517 92.1339 146.517H87.6647C87.1678 146.517 86.9198 146.269 86.947 145.827V145.634L95.8033 111.203C95.9414 110.596 96.2997 110.292 96.9342 110.292H101.404C101.873 110.292 102.093 110.513 102.066 110.955V111.092L93.1821 145.607Z" fill="black"></path>
<path d="M121.902 145.605C121.764 146.212 121.405 146.516 120.799 146.516H116.495C116.081 146.516 115.887 146.35 115.915 146.019V145.771C115.915 145.605 115.805 145.523 115.529 145.523C115.115 145.523 114.701 145.605 114.26 145.743C113.819 145.881 113.322 146.046 112.743 146.212C112.163 146.378 111.501 146.543 110.756 146.681C110.011 146.819 109.128 146.902 108.08 146.902C107.004 146.902 106.011 146.791 105.101 146.598C104.19 146.406 103.39 146.074 102.728 145.605C102.066 145.164 101.541 144.557 101.21 143.839C100.852 143.122 100.714 142.267 100.741 141.246C100.769 140.584 100.879 139.812 101.045 138.956C101.21 138.101 101.431 137.135 101.734 136.059L105.487 121.464C105.625 120.857 105.983 120.554 106.59 120.554H111.143C111.584 120.554 111.777 120.747 111.777 121.161V121.326L107.777 136.942C107.584 137.77 107.445 138.46 107.445 139.011C107.39 140.143 107.694 140.998 108.328 141.522C108.963 142.046 110.094 142.322 111.639 142.322C112.936 142.322 114.15 142.074 115.225 141.605C116.329 141.136 116.991 140.335 117.295 139.232L121.847 121.464C121.985 120.857 122.316 120.554 122.895 120.554H127.448C127.916 120.554 128.137 120.775 128.109 121.216V121.382L121.902 145.605Z" fill="black"></path>
<path d="M143.119 145.056C143.035 145.416 142.76 145.719 142.291 145.967C141.822 146.188 141.298 146.381 140.663 146.519C140.028 146.657 139.394 146.767 138.704 146.822C138.014 146.878 137.435 146.933 136.911 146.933C136 146.933 135.145 146.878 134.318 146.767C133.49 146.657 132.745 146.409 132.11 146.05C131.476 145.691 130.979 145.14 130.621 144.395C130.262 143.65 130.124 142.684 130.179 141.47C130.235 140.532 130.428 139.373 130.786 137.994L133.987 125.44V125.33C133.987 125.082 133.876 124.972 133.6 124.972H131.2C130.676 124.972 130.4 124.751 130.428 124.309C130.428 124.227 130.428 124.199 130.455 124.144C130.483 124.116 130.482 124.061 130.482 123.978L131.09 121.468C131.255 120.861 131.642 120.558 132.276 120.558H134.676C135.007 120.558 135.228 120.364 135.366 119.951L136.635 114.874C136.8 114.24 137.187 113.908 137.794 113.908H142.153C142.677 113.908 142.953 114.102 142.925 114.515V114.763L141.601 119.951V120.144C141.601 120.42 141.711 120.558 141.987 120.558H148.443C148.939 120.558 149.188 120.75 149.16 121.109V121.302L148.498 123.951C148.333 124.585 147.947 124.917 147.339 124.917H140.883C140.525 124.917 140.277 125.11 140.166 125.524L136.828 138.518C136.773 138.711 136.745 138.904 136.718 139.125C136.69 139.318 136.663 139.539 136.663 139.732C136.635 140.477 136.773 141.084 137.131 141.58C137.49 142.077 138.18 142.298 139.256 142.298C139.891 142.298 140.415 142.242 140.829 142.16C141.242 142.05 141.628 141.939 141.932 141.801C142.236 141.663 142.511 141.553 142.732 141.443C142.953 141.332 143.146 141.305 143.312 141.305C143.725 141.305 143.891 141.498 143.891 141.856V142.05L143.119 145.056Z" fill="black"></path>
<path d="M153.352 145.605C153.213 146.212 152.882 146.516 152.303 146.516H147.834C147.337 146.516 147.089 146.268 147.116 145.826V145.633L153.296 121.52C153.434 120.913 153.793 120.61 154.427 120.61H158.897C159.366 120.61 159.587 120.83 159.559 121.271V121.437L153.352 145.605ZM162.097 113.436C161.545 115.506 160.083 116.554 157.71 116.554C155.669 116.554 154.675 115.754 154.759 114.181C154.814 112.912 155.283 111.919 156.166 111.257C157.048 110.594 158.124 110.236 159.393 110.236C161.352 110.236 162.318 110.981 162.263 112.498C162.263 112.664 162.235 112.829 162.207 112.939C162.18 113.105 162.152 113.271 162.097 113.436Z" fill="black"></path>
<path d="M186.735 133.468C186.238 135.426 185.521 137.22 184.555 138.848C183.59 140.503 182.431 141.91 181.051 143.124C179.672 144.338 178.1 145.276 176.306 145.938C174.513 146.6 172.527 146.959 170.319 146.959C166.788 146.959 164.167 146.103 162.512 144.421C160.857 142.737 160.084 140.392 160.222 137.441C160.277 136.254 160.47 134.985 160.829 133.606C161.325 131.647 162.043 129.853 163.009 128.226C163.974 126.571 165.133 125.163 166.512 123.977C167.892 122.791 169.464 121.853 171.258 121.191C173.051 120.528 175.037 120.197 177.244 120.197C180.776 120.197 183.397 121.025 185.052 122.708C186.707 124.391 187.48 126.708 187.342 129.661C187.314 130.847 187.093 132.116 186.735 133.468ZM180.224 133.357C180.583 131.95 180.803 130.709 180.831 129.633C180.914 127.812 180.555 126.515 179.727 125.743C178.9 124.943 177.686 124.556 176.058 124.556C173.961 124.556 172.196 125.274 170.761 126.681C169.326 128.088 168.195 130.433 167.34 133.744C166.981 135.234 166.761 136.475 166.733 137.468C166.65 139.289 167.009 140.586 167.809 141.386C168.609 142.186 169.851 142.6 171.506 142.6C173.575 142.6 175.341 141.882 176.775 140.476C178.238 139.068 179.396 136.696 180.224 133.357Z" fill="black"></path>
<path d="M210.656 145.607C210.518 146.214 210.159 146.517 209.552 146.517H205.083C204.614 146.517 204.393 146.297 204.42 145.856V145.607L208.256 130.654C208.504 129.799 208.642 128.998 208.669 128.198C208.724 126.957 208.393 126.074 207.676 125.55C206.959 125.025 205.966 124.777 204.697 124.777C204.09 124.777 203.483 124.832 202.848 124.915C202.214 125.025 201.634 125.191 201.11 125.412C200.586 125.66 200.117 125.964 199.703 126.349C199.289 126.736 199.013 127.205 198.875 127.729L194.268 145.607C194.13 146.214 193.799 146.517 193.22 146.517H188.751C188.254 146.517 188.005 146.297 188.033 145.856V145.607L194.213 121.494C194.378 120.887 194.764 120.584 195.344 120.584H199.648C200.062 120.584 200.255 120.749 200.227 121.025C200.227 121.08 200.227 121.135 200.2 121.163C200.172 121.19 200.172 121.246 200.172 121.329C200.172 121.494 200.338 121.577 200.668 121.577C201.083 121.577 201.496 121.494 201.938 121.356C202.379 121.218 202.904 121.052 203.483 120.887C204.062 120.722 204.724 120.556 205.469 120.418C206.186 120.28 207.042 120.197 208.007 120.197C210.352 120.197 212.173 120.666 213.47 121.605C214.766 122.542 215.373 124.032 215.291 126.046C215.236 127.232 215.015 128.584 214.601 130.185L210.656 145.607Z" fill="black"></path>
<path d="M234.301 137.054C234.246 138.544 233.887 139.896 233.28 141.11C232.645 142.352 231.846 143.372 230.825 144.227C229.804 145.083 228.59 145.745 227.238 146.214C225.859 146.683 224.369 146.931 222.769 146.931C220.672 146.931 218.907 146.738 217.5 146.325C216.093 145.911 215.403 145.359 215.43 144.669V144.476L216.147 141.607C216.286 141.027 216.617 140.751 217.141 140.751C217.334 140.751 217.582 140.834 217.831 141.027C218.079 141.22 218.438 141.413 218.906 141.662C219.375 141.91 219.955 142.103 220.644 142.296C221.334 142.489 222.272 142.572 223.376 142.572C224.893 142.572 225.997 142.269 226.741 141.662C227.486 141.055 227.873 140.282 227.928 139.289C227.955 138.848 227.817 138.461 227.542 138.103C227.266 137.744 226.825 137.33 226.162 136.861L222.796 134.433C221.803 133.688 221.058 132.943 220.562 132.144C220.065 131.371 219.872 130.433 219.9 129.412C219.955 128.005 220.286 126.736 220.893 125.605C221.5 124.473 222.3 123.508 223.293 122.708C224.286 121.908 225.5 121.273 226.852 120.86C228.232 120.418 229.694 120.197 231.266 120.197C232.121 120.197 232.949 120.252 233.749 120.335C234.522 120.446 235.211 120.584 235.818 120.776C236.397 120.97 236.867 121.218 237.226 121.494C237.557 121.77 237.722 122.046 237.722 122.349V122.542L236.949 125.522C236.867 125.77 236.784 125.936 236.674 126.101C236.563 126.239 236.343 126.322 236.011 126.322C235.791 126.322 235.542 126.239 235.267 126.046C235.018 125.853 234.687 125.66 234.301 125.439C233.915 125.219 233.418 125.025 232.839 124.832C232.259 124.639 231.515 124.556 230.632 124.556C229.197 124.556 228.094 124.805 227.376 125.301C226.631 125.798 226.245 126.487 226.217 127.315C226.19 127.757 226.3 128.143 226.548 128.474C226.797 128.805 227.156 129.164 227.68 129.523L231.432 132.198C232.452 132.971 233.225 133.744 233.694 134.543C234.135 135.344 234.356 136.171 234.301 137.054Z" fill="black"></path>
<path d="M269.144 124.004C268.979 124.639 268.592 124.97 267.958 124.97H264.04C263.681 124.97 263.433 125.163 263.323 125.577L258.164 145.607C258.026 146.214 257.695 146.517 257.115 146.517H252.563C252.122 146.517 251.929 146.296 251.929 145.855V145.607L257.088 125.577C257.088 125.521 257.088 125.467 257.115 125.439C257.143 125.411 257.143 125.384 257.143 125.356C257.143 125.08 257.005 124.942 256.674 124.942H254.274C253.805 124.942 253.584 124.749 253.611 124.335V124.17L254.274 121.438C254.439 120.831 254.826 120.528 255.405 120.528H257.805C258.164 120.528 258.412 120.335 258.522 119.921L259.184 117.3C259.791 114.928 260.867 113.106 262.44 111.838C263.985 110.568 265.971 109.961 268.399 109.961C269.862 109.961 270.938 110.099 271.572 110.375C272.206 110.651 272.51 111.01 272.51 111.424V111.562L271.793 114.183C271.627 114.707 271.351 114.982 270.91 114.982C270.606 114.982 270.33 114.9 270.082 114.707C269.834 114.513 269.392 114.431 268.758 114.431C266.992 114.431 265.833 115.479 265.309 117.603L264.757 119.921V120.17C264.757 120.418 264.895 120.528 265.199 120.528H269.117C269.613 120.528 269.862 120.721 269.834 121.08V121.218L269.144 124.004Z" fill="black"></path>
<path d="M294.139 133.468C293.642 135.426 292.925 137.22 291.96 138.848C290.994 140.503 289.835 141.91 288.455 143.124C287.076 144.338 285.504 145.276 283.711 145.938C281.917 146.6 279.931 146.959 277.723 146.959C274.192 146.959 271.571 146.103 269.916 144.421C268.261 142.737 267.488 140.392 267.626 137.441C267.681 136.254 267.874 134.985 268.233 133.606C268.73 131.647 269.447 129.853 270.412 128.226C271.378 126.571 272.537 125.163 273.916 123.977C275.296 122.791 276.868 121.853 278.662 121.191C280.455 120.528 282.441 120.197 284.648 120.197C288.18 120.197 290.8 121.025 292.456 122.708C294.112 124.391 294.884 126.708 294.746 129.661C294.691 130.847 294.498 132.116 294.139 133.468ZM287.628 133.357C287.987 131.95 288.208 130.709 288.235 129.633C288.318 127.812 287.959 126.515 287.132 125.743C286.303 124.943 285.09 124.556 283.462 124.556C281.365 124.556 279.6 125.274 278.165 126.681C276.731 128.088 275.599 130.433 274.744 133.744C274.385 135.234 274.165 136.475 274.137 137.468C274.055 139.289 274.413 140.586 275.213 141.386C276.013 142.186 277.255 142.6 278.91 142.6C280.979 142.6 282.745 141.882 284.179 140.476C285.614 139.068 286.773 136.696 287.628 133.357Z" fill="black"></path>
<path d="M316.044 125.055C315.933 125.551 315.63 125.8 315.161 125.8C314.968 125.8 314.775 125.772 314.637 125.744C314.499 125.717 314.278 125.662 314.03 125.607C313.781 125.551 313.45 125.496 313.064 125.469C312.678 125.413 312.126 125.386 311.464 125.386C310.057 125.386 308.871 125.689 307.877 126.296C306.912 126.903 306.222 127.896 305.864 129.276L301.67 145.581C301.532 146.188 301.201 146.491 300.677 146.491H296.125C295.656 146.491 295.435 146.243 295.463 145.802V145.609L301.642 121.496C301.808 120.889 302.167 120.585 302.746 120.585H307.105C307.464 120.585 307.657 120.723 307.629 120.999C307.629 121.082 307.602 121.164 307.574 121.302C307.546 121.44 307.519 121.606 307.491 121.799C307.491 122.047 307.602 122.158 307.877 122.158C308.236 122.158 308.65 122.047 309.091 121.854C309.533 121.661 310.029 121.44 310.609 121.164C311.161 120.916 311.823 120.696 312.512 120.475C313.202 120.254 314.002 120.171 314.885 120.171C315.713 120.171 316.264 120.282 316.541 120.475C316.816 120.668 316.954 120.916 316.927 121.22V121.468L316.044 125.055Z" fill="black"></path>
<path d="M352.904 121.022C352.904 121.214 352.739 121.601 352.408 122.125L334.365 151.48C333.096 153.549 331.799 155.094 330.447 156.087C329.095 157.08 327.468 157.577 325.509 157.577C323.771 157.577 322.915 157.302 322.943 156.777V156.611L323.66 153.742C323.771 153.273 324.047 153.053 324.488 153.053C324.654 153.053 324.819 153.053 325.012 153.08C325.206 153.108 325.481 153.108 325.84 153.108C326.502 153.108 327.109 152.97 327.633 152.666C328.157 152.363 328.681 151.811 329.178 151.011L330.309 149.19C330.585 148.776 330.779 148.473 330.861 148.279C330.944 148.087 330.971 147.893 330.999 147.728C330.999 147.618 330.999 147.48 330.999 147.286C330.999 147.093 330.971 146.928 330.944 146.762L328.24 121.932V121.683C328.268 121.352 328.35 121.076 328.488 120.884C328.654 120.69 328.93 120.58 329.316 120.58H334.117C334.392 120.58 334.558 120.635 334.668 120.746C334.751 120.856 334.834 120.994 334.862 121.187L336.131 139.12C336.131 139.561 336.241 139.782 336.406 139.782C336.599 139.782 336.82 139.561 337.096 139.12L347.276 121.187C347.524 120.773 347.911 120.58 348.463 120.58H352.215C352.684 120.58 352.904 120.718 352.904 121.022Z" fill="black"></path>
<path d="M428.055 125.055C427.945 125.551 427.641 125.8 427.172 125.8C426.979 125.8 426.786 125.772 426.648 125.744C426.511 125.717 426.29 125.662 426.041 125.607C425.793 125.551 425.462 125.496 425.076 125.469C424.69 125.413 424.138 125.386 423.476 125.386C422.069 125.386 420.882 125.689 419.889 126.296C418.923 126.903 418.234 127.896 417.875 129.276L413.681 145.581C413.543 146.188 413.213 146.491 412.688 146.491H408.136C407.667 146.491 407.446 146.243 407.474 145.802V145.609L413.654 121.496C413.82 120.889 414.178 120.585 414.757 120.585H419.117C419.475 120.585 419.668 120.723 419.641 120.999C419.641 121.082 419.613 121.164 419.585 121.302C419.558 121.44 419.531 121.606 419.503 121.799C419.503 122.047 419.613 122.158 419.889 122.158C420.248 122.158 420.661 122.047 421.103 121.854C421.544 121.661 422.041 121.44 422.62 121.164C423.172 120.916 423.834 120.696 424.524 120.475C425.214 120.254 426.014 120.171 426.897 120.171C427.724 120.171 428.276 120.282 428.552 120.475C428.828 120.668 428.966 120.916 428.938 121.22V121.468L428.055 125.055Z" fill="black"></path>
<path d="M528.893 125.055C528.782 125.551 528.479 125.8 528.01 125.8C527.817 125.8 527.624 125.772 527.486 125.744C527.348 125.717 527.127 125.662 526.879 125.607C526.63 125.551 526.299 125.496 525.913 125.469C525.527 125.413 524.975 125.386 524.313 125.386C522.906 125.386 521.72 125.689 520.727 126.296C519.761 126.903 519.071 127.896 518.712 129.276L514.519 145.581C514.381 146.188 514.05 146.491 513.526 146.491H508.974C508.505 146.491 508.284 146.243 508.311 145.802V145.609L514.492 121.496C514.657 120.889 515.016 120.585 515.595 120.585H519.954C520.312 120.585 520.506 120.723 520.478 120.999C520.478 121.082 520.451 121.164 520.423 121.302C520.396 121.44 520.368 121.606 520.34 121.799C520.34 122.047 520.451 122.158 520.727 122.158C521.085 122.158 521.499 122.047 521.94 121.854C522.382 121.661 522.878 121.44 523.458 121.164C524.01 120.916 524.672 120.696 525.361 120.475C526.079 120.282 526.851 120.171 527.734 120.171C528.562 120.171 529.113 120.282 529.39 120.475C529.665 120.668 529.803 120.916 529.776 121.22V121.468L528.893 125.055Z" fill="black"></path>
<path d="M443.808 149.771C443.118 152.503 441.904 154.462 440.194 155.703C438.456 156.945 436.331 157.551 433.793 157.551C432.055 157.551 431.2 157.275 431.227 156.696V156.558L431.945 153.799C432.027 153.496 432.138 153.303 432.303 153.192C432.469 153.082 432.607 153.054 432.772 153.054C432.965 153.054 433.131 153.054 433.242 153.082C433.352 153.11 433.517 153.11 433.71 153.11C434.842 153.11 435.725 152.806 436.304 152.199C436.911 151.592 437.352 150.627 437.683 149.275L444.773 121.493C444.911 120.885 445.27 120.582 445.877 120.582H450.346C450.843 120.582 451.091 120.803 451.064 121.244V121.409L443.808 149.771ZM453.602 113.436C453.05 115.506 451.56 116.554 449.215 116.554C447.174 116.554 446.18 115.754 446.263 114.181C446.319 112.912 446.787 111.919 447.67 111.257C448.553 110.594 449.629 110.236 450.898 110.236C452.857 110.236 453.823 110.981 453.767 112.498C453.767 112.664 453.74 112.829 453.712 112.939C453.657 113.105 453.63 113.271 453.602 113.436Z" fill="black"></path>
<path d="M550.548 145.607C550.412 146.214 550.053 146.517 549.444 146.517H544.975C544.508 146.517 544.285 146.297 544.312 145.856V145.607L548.15 130.654C548.395 129.799 548.536 128.998 548.564 128.198C548.618 126.957 548.286 126.074 547.569 125.55C546.851 125.025 545.861 124.777 544.589 124.777C543.986 124.777 543.376 124.832 542.742 124.915C542.107 125.025 541.555 125.191 541.003 125.412C540.452 125.632 540.01 125.964 539.596 126.349C539.183 126.736 538.906 127.205 538.769 127.729L534.162 145.607C534.023 146.214 533.692 146.517 533.113 146.517H528.644C528.147 146.517 527.899 146.297 527.926 145.856V145.607L534.106 121.494C534.271 120.887 534.658 120.584 535.237 120.584H539.541C539.955 120.584 540.148 120.749 540.121 121.025C540.121 121.08 540.12 121.135 540.093 121.163C540.066 121.19 540.065 121.246 540.065 121.329C540.065 121.494 540.231 121.577 540.562 121.577C540.976 121.577 541.39 121.494 541.831 121.356C542.272 121.218 542.797 121.052 543.376 120.887C543.953 120.722 544.616 120.556 545.361 120.418C546.079 120.28 546.933 120.197 547.9 120.197C550.244 120.197 552.065 120.666 553.364 121.605C554.658 122.542 555.267 124.032 555.186 126.046C555.131 127.232 554.909 128.584 554.495 130.185L550.548 145.607Z" fill="black"></path>
<path d="M582.164 133.661C581.974 134.268 581.588 134.571 581.033 134.571H565.146C564.7 134.571 564.401 134.792 564.233 135.234C564.07 135.675 563.956 136.365 563.928 137.303C563.847 138.958 564.342 140.254 565.391 141.193C566.44 142.131 568.071 142.6 570.333 142.6C571.464 142.6 572.481 142.489 573.394 142.296C574.302 142.103 575.101 141.882 575.765 141.662C576.428 141.441 576.95 141.248 577.369 141.027C577.782 140.834 578.054 140.724 578.222 140.724C578.663 140.724 578.858 140.889 578.858 141.22V141.331L578.027 144.145C577.918 144.641 577.559 145.083 576.983 145.442C576.401 145.8 575.683 146.076 574.802 146.325C573.943 146.573 572.954 146.738 571.877 146.821C570.774 146.931 569.643 146.986 568.425 146.986C564.537 146.986 561.721 146.187 559.905 144.586C558.111 142.986 557.252 140.696 557.393 137.717C557.448 136.503 557.638 135.206 558.024 133.826C558.633 131.537 559.459 129.55 560.509 127.839C561.558 126.129 562.77 124.722 564.151 123.591C565.532 122.46 567.076 121.632 568.729 121.052C570.388 120.473 572.122 120.197 573.943 120.197C577.254 120.197 579.63 120.97 581.093 122.487C582.555 124.004 583.213 126.046 583.105 128.612C583.078 129.192 582.969 129.964 582.773 130.985C582.555 131.95 582.36 132.861 582.164 133.661ZM576.042 130.488C576.401 130.488 576.651 130.322 576.787 129.991C576.923 129.661 577.01 129.108 577.037 128.391C577.091 127.122 576.76 126.129 576.015 125.384C575.27 124.667 574.112 124.308 572.508 124.308C571.437 124.308 570.469 124.529 569.588 124.97C568.702 125.412 567.984 125.936 567.381 126.543C566.772 127.15 566.332 127.784 566 128.447C565.668 129.108 565.505 129.715 565.478 130.212C565.478 130.405 565.641 130.516 565.973 130.516H576.042V130.488Z" fill="black"></path>
<path d="M611.687 121.022C611.687 121.214 611.518 121.601 611.187 122.125L593.147 151.48C591.875 153.549 590.581 155.094 589.227 156.087C587.878 157.08 586.247 157.577 584.29 157.577C582.55 157.577 581.697 157.302 581.724 156.777V156.611L582.441 153.742C582.55 153.273 582.827 153.053 583.268 153.053C583.436 153.053 583.599 153.053 583.795 153.08C583.985 153.108 584.263 153.108 584.622 153.108C585.285 153.108 585.888 152.97 586.416 152.666C586.938 152.363 587.46 151.811 587.96 151.011L589.091 149.19C589.368 148.776 589.558 148.473 589.64 148.279C589.727 148.087 589.754 147.893 589.781 147.728C589.781 147.618 589.781 147.48 589.781 147.286C589.781 147.093 589.754 146.928 589.727 146.762L587.019 121.932V121.683C587.047 121.352 587.133 121.076 587.269 120.884C587.432 120.69 587.71 120.58 588.096 120.58H592.897C593.174 120.58 593.337 120.635 593.451 120.746C593.533 120.856 593.614 120.994 593.642 121.187L594.914 139.12C594.914 139.561 595.023 139.782 595.186 139.782C595.381 139.782 595.599 139.561 595.876 139.12L606.06 121.187C606.304 120.773 606.69 120.58 607.245 120.58H610.996C611.464 120.58 611.714 120.718 611.687 121.022Z" fill="black"></path>
<path d="M502.214 145.605C502.076 146.212 501.718 146.516 501.111 146.516H496.807C496.393 146.516 496.2 146.35 496.227 146.019V145.771C496.227 145.605 496.117 145.523 495.841 145.523C495.427 145.523 495.014 145.605 494.572 145.743C494.131 145.881 493.634 146.046 493.055 146.212C492.475 146.378 491.813 146.543 491.068 146.681C490.323 146.819 489.441 146.902 488.392 146.902C487.316 146.902 486.323 146.791 485.413 146.598C484.502 146.406 483.702 146.074 483.04 145.605C482.378 145.164 481.854 144.557 481.522 143.839C481.164 143.122 481.026 142.267 481.054 141.246C481.081 140.584 481.191 139.812 481.357 138.956C481.522 138.101 481.743 137.135 482.047 136.059L485.799 121.464C485.937 120.857 486.296 120.554 486.902 120.554H491.455C491.896 120.554 492.089 120.747 492.089 121.161V121.326L488.089 136.942C487.896 137.77 487.758 138.46 487.758 139.011C487.703 140.143 488.006 140.998 488.641 141.522C489.275 142.046 490.406 142.322 491.951 142.322C493.248 142.322 494.462 142.074 495.538 141.605C496.641 141.136 497.303 140.335 497.607 139.232L502.159 121.464C502.297 120.857 502.628 120.554 503.207 120.554H507.76C508.228 120.554 508.449 120.775 508.422 121.216V121.382L502.214 145.605Z" fill="black"></path>
<path d="M478.294 133.468C477.798 135.426 477.08 137.22 476.114 138.848C475.149 140.503 473.99 141.91 472.611 143.124C471.231 144.338 469.658 145.276 467.865 145.938C466.072 146.6 464.086 146.959 461.879 146.959C458.347 146.959 455.726 146.103 454.071 144.421C452.416 142.737 451.643 140.392 451.781 137.441C451.836 136.254 452.03 134.985 452.388 133.606C452.885 131.647 453.602 129.853 454.568 128.226C455.533 126.571 456.692 125.163 458.071 123.977C459.45 122.791 461.023 121.853 462.816 121.191C464.61 120.528 466.596 120.197 468.803 120.197C472.334 120.197 474.956 121.025 476.611 122.708C478.266 124.391 479.039 126.708 478.901 129.661C478.846 130.847 478.653 132.116 478.294 133.468ZM471.783 133.357C472.141 131.95 472.362 130.709 472.39 129.633C472.473 127.812 472.114 126.515 471.286 125.743C470.459 124.943 469.245 124.556 467.617 124.556C465.52 124.556 463.754 125.274 462.32 126.681C460.885 128.088 459.754 130.433 458.899 133.744C458.54 135.234 458.32 136.475 458.292 137.468C458.209 139.289 458.568 140.586 459.368 141.386C460.168 142.186 461.409 142.6 463.065 142.6C465.134 142.6 466.9 141.882 468.335 140.476C469.769 139.068 470.928 136.696 471.783 133.357Z" fill="black"></path>
<path d="M401.377 145.605C401.238 146.212 400.88 146.516 400.273 146.516H395.969C395.555 146.516 395.362 146.35 395.39 146.019V145.771C395.39 145.605 395.279 145.523 395.004 145.523C394.59 145.523 394.176 145.605 393.734 145.743C393.293 145.881 392.796 146.046 392.217 146.212C391.638 146.378 390.976 146.543 390.231 146.681C389.486 146.819 388.603 146.902 387.555 146.902C386.479 146.902 385.485 146.791 384.575 146.598C383.664 146.406 382.865 146.074 382.202 145.605C381.54 145.164 381.016 144.557 380.685 143.839C380.326 143.122 380.189 142.267 380.216 141.246C380.244 140.584 380.354 139.812 380.52 138.956C380.685 138.101 380.906 137.135 381.209 136.059L384.961 121.464C385.099 120.857 385.458 120.554 386.065 120.554H390.617C391.058 120.554 391.252 120.747 391.252 121.161V121.326L387.251 136.942C387.058 137.77 386.92 138.46 386.92 139.011C386.865 140.143 387.169 140.998 387.803 141.522C388.438 142.046 389.568 142.322 391.114 142.322C392.41 142.322 393.624 142.074 394.7 141.605C395.804 141.136 396.466 140.335 396.769 139.232L401.322 121.464C401.459 120.857 401.79 120.554 402.37 120.554H406.922C407.391 120.554 407.612 120.775 407.584 121.216V121.382L401.377 145.605Z" fill="black"></path>
<path d="M377.459 133.468C376.962 135.426 376.245 137.22 375.279 138.848C374.313 140.503 373.155 141.91 371.775 143.124C370.396 144.338 368.824 145.276 367.03 145.938C365.237 146.6 363.251 146.959 361.043 146.959C357.512 146.959 354.891 146.103 353.236 144.421C351.581 142.737 350.808 140.392 350.946 137.441C351.001 136.254 351.194 134.985 351.553 133.606C352.05 131.647 352.767 129.853 353.732 128.226C354.698 126.571 355.857 125.163 357.236 123.977C358.616 122.791 360.188 121.853 361.982 121.191C363.775 120.528 365.761 120.197 367.968 120.197C371.5 120.197 374.12 121.025 375.776 122.708C377.431 124.391 378.204 126.708 378.066 129.661C378.038 130.847 377.818 132.116 377.459 133.468ZM370.948 133.357C371.307 131.95 371.528 130.709 371.555 129.633C371.638 127.812 371.279 126.515 370.452 125.743C369.623 124.943 368.41 124.556 366.782 124.556C364.685 124.556 362.92 125.274 361.485 126.681C360.051 128.088 358.919 130.433 358.064 133.744C357.705 135.234 357.485 136.475 357.457 137.468C357.375 139.289 357.733 140.586 358.533 141.386C359.333 142.186 360.575 142.6 362.23 142.6C364.299 142.6 366.064 141.882 367.499 140.476C368.961 139.068 370.093 136.696 370.948 133.357Z" fill="black"></path>
</svg>