<svg width="379" height="226" viewBox="0 0 379 226" fill="none" xmlns="http://www.w3.org/2000/svg">
<path d="M99.5078 179.273V151.896H105.572V163.032H128.117V151.896H133.87V179.273H128.117V166.28H105.572V179.273H99.5078Z" fill="black"></path>
<path d="M149.729 179.273V151.896H158.125C162.168 159.784 166.366 167.053 170.097 174.942C173.984 166.899 178.027 159.784 182.07 151.896H190.621V179.273H185.024L184.868 156.072L172.896 179.273H167.299L155.326 156.226V179.273H149.729Z" fill="black"></path>
<path d="M206.327 179.273V151.896H237.112V154.989H212.079V163.187H235.557V166.435H212.079V175.715H237.735V179.273H206.327Z" fill="black"></path>
<path d="M251.262 179.273V151.896H257.17V175.406H278.781V179.273H251.262Z" fill="black"></path>
<path d="M189.531 122.508C200.104 89.2527 214.564 62.3396 219.85 45.7895C223.271 34.8077 223.426 22.4337 216.43 12.6892C200.726 -9.1198 158.9 -2.31414 156.879 29.2393C156.568 34.1888 157.346 39.1385 158.745 43.7786C163.565 59.5555 179.113 88.4794 189.531 122.508Z" fill="#EE7E22"></path>
<path d="M189.534 140.911C166.989 94.0451 139.002 124.516 115.99 115.7C87.3811 102.088 98.8869 63.729 131.383 64.0383C170.41 64.5026 179.739 102.862 189.534 140.911Z" fill="#86A43D"></path>
<path d="M189.533 140.913C212.078 94.0472 240.222 124.363 263.076 115.702C291.686 102.09 280.024 63.7311 247.685 63.8858C208.657 64.5044 199.328 102.864 189.533 140.913Z" fill="#86A43D"></path>
<path d="M270.696 131.942H269.141V135.036H270.696C271.475 135.036 272.251 134.881 272.563 134.572C273.03 134.262 273.185 133.953 273.185 133.334C273.185 132.715 272.873 132.406 272.563 132.097C272.251 131.942 271.475 131.942 270.696 131.942ZM271.008 130.705C272.408 130.705 273.339 131.014 274.118 131.323C274.74 131.787 275.052 132.406 275.052 133.334C275.052 133.953 274.74 134.572 274.428 135.19C273.963 135.654 273.497 135.809 272.718 136.118L274.895 140.449H272.873L271.008 136.273H269.141V140.449H267.276V130.705H271.008ZM278.317 135.809C278.317 134.726 278.159 133.798 277.695 132.87C277.228 131.942 276.916 131.169 276.14 130.55C275.516 129.931 274.585 129.313 273.651 128.849C272.718 128.385 271.784 128.23 270.696 128.23C269.765 128.23 268.832 128.385 267.743 128.849C266.965 129.313 266.033 129.777 265.412 130.395C264.788 131.014 264.166 131.942 263.7 132.87C263.233 133.798 263.078 134.726 263.078 135.809C263.078 136.892 263.233 137.665 263.7 138.593C264.166 139.521 264.633 140.295 265.412 141.068C266.033 141.687 266.965 142.305 267.743 142.769C268.677 143.233 269.608 143.388 270.541 143.388C271.475 143.388 272.408 143.233 273.497 142.769C274.428 142.305 275.361 141.841 275.983 141.068C276.604 140.449 277.228 139.521 277.695 138.748C278.005 137.82 278.317 136.892 278.317 135.809ZM270.696 127.147C271.942 127.147 273.03 127.457 273.963 127.766C275.052 128.23 275.828 128.849 276.762 129.622C277.538 130.395 278.159 131.478 278.626 132.406C279.093 133.489 279.248 134.572 279.248 135.654C279.248 136.892 278.938 137.974 278.626 138.902C278.159 139.83 277.538 140.759 276.762 141.687C275.983 142.615 274.895 143.233 273.806 143.543C272.718 144.007 271.63 144.161 270.541 144.161C269.453 144.161 268.365 143.852 267.276 143.543C266.188 143.079 265.41 142.46 264.478 141.687C263.7 140.913 263.078 139.83 262.611 138.902C262.145 137.974 261.99 136.892 261.99 135.654C261.99 134.572 262.302 133.489 262.611 132.406C262.923 131.323 263.7 130.395 264.478 129.467C265.255 128.539 266.188 128.075 267.276 127.611C268.52 127.302 269.608 127.147 270.696 127.147Z" fill="black"></path>
<path d="M12.4387 210.78H4.97548L3.10967 217.74H11.5058L10.8839 219.906H0L4.97548 200.571H15.5484L14.9265 202.582H7.15225L5.59743 208.615H13.0607L12.4387 210.78Z" fill="black"></path>
<path d="M16.7938 209.699C17.1048 208.307 17.4158 207.07 17.7267 205.987H19.9035L19.437 208.307C20.5255 207.07 22.3913 205.678 24.7234 205.678C26.5892 205.678 29.3881 206.761 28.1443 211.556L25.9674 219.753H23.4796L25.5009 211.71C26.1229 209.545 25.8119 207.689 23.3241 207.689C21.6138 207.689 20.059 208.926 19.2815 210.318C19.126 210.628 18.9707 211.092 18.8152 211.556L16.6383 219.908H14.1506L16.7938 209.699Z" fill="black"></path>
<path d="M33.2749 213.408C32.4974 216.811 34.2077 218.203 36.8511 218.203C38.7169 218.203 39.8052 217.894 40.8937 217.43V219.286C39.9607 219.75 38.2504 220.214 36.0735 220.214C31.7201 220.214 30.0096 217.43 31.0981 213.254C32.1864 209.077 35.4518 205.829 39.4941 205.829C44.0033 205.829 44.1588 209.851 43.5368 212.326C43.3813 212.79 43.2258 213.254 43.0705 213.563H33.2749V213.408ZM41.0492 211.552C41.5155 210.005 41.5155 207.531 38.5614 207.531C35.918 207.531 34.2077 209.851 33.5859 211.552H41.0492Z" fill="black"></path>
<path d="M46.9553 210.318C47.4216 208.617 47.7326 207.225 48.0436 205.987H50.2204L49.5984 208.771H49.7539C50.8424 206.916 52.7082 205.678 54.4185 205.678C54.7293 205.678 54.8848 205.678 55.0403 205.678L54.4185 207.998C54.1075 207.998 53.952 207.998 53.641 207.998C51.9307 207.998 50.2204 209.39 49.4429 211.246C49.2874 211.556 49.1319 212.02 48.9766 212.484L47.1105 219.908H44.4675L46.9553 210.318Z" fill="black"></path>
<path d="M66.0799 217.743C65.3026 220.991 64.0586 222.847 62.5038 224.084C60.7935 225.322 58.7721 225.786 56.9063 225.786C55.196 225.786 53.4857 225.322 52.5529 224.703L53.6412 222.692C54.4187 223.311 55.6625 223.775 57.3728 223.775C60.0162 223.775 62.1927 222.383 63.1258 218.98L63.5923 217.433C62.5038 218.671 60.638 219.753 58.6166 219.753C55.196 219.753 53.4857 216.814 54.4187 212.948C55.6625 208.307 59.3942 205.678 62.6593 205.678C65.1471 205.678 66.0799 206.916 66.3909 207.998L67.0129 205.987H69.3452C69.0342 206.916 68.7232 208.153 68.2567 209.699L66.0799 217.743ZM65.3026 211.401C65.4581 210.937 65.4581 210.628 65.4581 210.318C65.4581 208.771 64.5251 207.689 62.6593 207.689C60.1714 207.689 57.9949 209.699 57.2173 212.948C56.4398 215.732 57.3728 217.897 60.0162 217.897C61.571 217.897 63.2813 216.969 64.2141 215.268C64.5251 214.804 64.6806 214.34 64.8361 213.876L65.3026 211.401Z" fill="black"></path>
<path d="M69.6581 219.751L73.2342 205.985H75.722L72.1459 219.751H69.6581ZM77.1213 202.118C76.9658 203.046 76.1885 203.665 75.1 203.665C74.1672 203.665 73.7007 203.046 74.0117 202.118C74.1672 201.19 75.1 200.571 76.033 200.571C76.8103 200.571 77.2768 201.19 77.1213 202.118Z" fill="black"></path>
<path d="M76.6562 217.275C77.2782 217.739 78.522 218.203 79.7658 218.203C81.6316 218.203 82.7202 217.275 83.0312 216.193C83.3422 214.955 82.7202 214.336 81.1654 213.718C78.833 212.79 78.0555 211.397 78.522 209.851C79.1441 207.685 81.4764 205.829 84.4305 205.829C85.8298 205.829 86.9183 206.139 87.5401 206.757L86.4518 208.614C85.9853 208.304 85.0525 207.84 83.8085 207.84C82.2537 207.84 81.3209 208.768 81.0099 209.696C80.6989 210.779 81.3209 211.397 83.0312 212.016C85.208 212.944 86.1408 214.027 85.6743 216.193C85.0525 218.667 82.7202 220.369 79.4551 220.369C77.9 220.369 76.6562 219.905 75.7234 219.441L76.6562 217.275Z" fill="black"></path>
<path d="M87.6935 219.751L91.2696 205.985H93.7574L90.1811 219.751H87.6935ZM95.1567 202.118C95.0012 203.046 94.2237 203.665 93.1354 203.665C92.2024 203.665 91.7361 203.046 92.0469 202.118C92.2024 201.19 93.1354 200.571 94.0682 200.571C95.0012 200.571 95.4677 201.19 95.1567 202.118Z" fill="black"></path>
<path d="M97.0202 209.699C97.3312 208.307 97.6422 207.07 97.9532 205.987H100.13L99.6635 208.307C100.752 207.07 102.618 205.678 104.95 205.678C106.816 205.678 109.615 206.761 108.371 211.556L106.194 219.753H103.706L105.727 211.71C106.349 209.545 106.038 207.689 103.551 207.689C101.84 207.689 100.286 208.926 99.508 210.318C99.3525 210.628 99.197 211.092 99.0415 211.556L96.8649 219.908H94.3771L97.0202 209.699Z" fill="black"></path>
<path d="M122.834 217.743C122.056 220.991 120.812 222.847 119.257 224.084C117.547 225.322 115.526 225.786 113.66 225.786C111.95 225.786 110.239 225.322 109.306 224.703L110.395 222.692C111.172 223.311 112.416 223.775 114.127 223.775C116.77 223.775 118.946 222.383 119.879 218.98L120.346 217.433C119.257 218.671 117.392 219.753 115.37 219.753C111.95 219.753 110.239 216.814 111.172 212.948C112.416 208.307 116.148 205.678 119.413 205.678C121.901 205.678 122.834 206.916 123.145 207.998L123.767 205.987H125.943C125.632 206.916 125.321 208.153 124.855 209.699L122.834 217.743ZM121.901 211.401C122.056 210.937 122.056 210.628 122.056 210.318C122.056 208.771 121.123 207.689 119.257 207.689C116.77 207.689 114.593 209.699 113.816 212.948C113.038 215.732 113.971 217.897 116.614 217.897C118.169 217.897 119.879 216.969 120.812 215.268C121.123 214.804 121.279 214.34 121.434 213.876L121.901 211.401Z" fill="black"></path>
<path d="M143.201 216.504C142.89 217.741 142.579 218.824 142.579 219.752H140.246L140.557 218.051H140.402C139.313 219.133 137.603 220.061 135.582 220.061C132.783 220.061 131.85 218.051 132.317 216.04C133.249 212.637 136.67 210.936 141.957 210.936V210.626C142.268 209.544 142.423 207.378 139.624 207.378C138.225 207.378 136.826 207.688 135.737 208.461L135.582 206.759C136.981 205.986 138.691 205.522 140.557 205.522C144.755 205.522 145.066 208.461 144.444 211.09L143.201 216.504ZM141.801 212.792C139.002 212.792 135.737 213.256 135.115 215.885C134.649 217.587 135.582 218.36 136.826 218.36C138.691 218.36 140.091 217.277 140.868 216.04C141.024 215.731 141.179 215.421 141.179 215.267L141.801 212.792Z" fill="black"></path>
<path d="M157.508 200.88C158.597 200.57 160.462 200.416 162.173 200.416C164.661 200.416 166.215 200.88 167.148 201.808C167.926 202.581 168.237 203.664 167.926 205.211C167.459 207.067 165.749 208.768 163.572 209.387V209.542C165.282 210.006 166.993 211.552 166.371 214.336C165.904 216.038 164.972 217.275 163.727 218.203C162.017 219.441 159.685 220.059 156.575 220.059C154.865 220.059 153.621 219.905 152.688 219.905L157.508 200.88ZM155.642 217.894C156.109 218.048 156.886 218.048 157.664 218.048C160.307 218.048 162.95 217.12 163.572 214.336C164.194 211.707 162.328 210.624 159.53 210.624H157.508L155.642 217.894ZM157.975 208.768H160.307C162.95 208.768 164.816 207.376 165.282 205.52C165.904 203.355 164.35 202.427 161.862 202.427C160.773 202.427 159.996 202.581 159.53 202.581L157.975 208.768Z" fill="black"></path>
<path d="M170.564 210.318C171.03 208.617 171.341 207.225 171.652 205.987H173.829L173.207 208.771H173.362C174.451 206.916 176.316 205.678 178.027 205.678C178.338 205.678 178.493 205.678 178.649 205.678L178.027 207.998C177.716 207.998 177.561 207.998 177.249 207.998C175.539 207.998 173.829 209.39 173.051 211.246C172.896 211.556 172.74 212.02 172.585 212.484L170.719 219.908H168.231L170.564 210.318Z" fill="black"></path>
<path d="M177.563 219.751L181.139 205.985H183.627L180.051 219.751H177.563ZM185.026 202.118C184.871 203.046 184.093 203.665 183.005 203.665C182.072 203.665 181.605 203.046 181.916 202.118C182.072 201.19 183.005 200.571 183.938 200.571C184.871 200.571 185.337 201.19 185.026 202.118Z" fill="black"></path>
<path d="M196.844 217.743C196.066 220.991 194.822 222.847 193.268 224.084C191.557 225.322 189.536 225.786 187.67 225.786C185.96 225.786 184.25 225.322 183.316 224.703L184.405 222.692C185.182 223.311 186.426 223.775 188.137 223.775C190.78 223.775 192.957 222.383 193.889 218.98L194.356 217.433C193.268 218.671 191.402 219.753 189.38 219.753C185.96 219.753 184.25 216.814 185.182 212.948C186.426 208.307 190.158 205.678 193.423 205.678C195.911 205.678 196.844 206.916 197.155 207.998L197.776 205.987H199.953C199.642 206.916 199.331 208.153 198.865 209.699L196.844 217.743ZM195.911 211.401C196.066 210.937 196.066 210.628 196.066 210.318C196.066 208.771 195.133 207.689 193.268 207.689C190.78 207.689 188.603 209.699 187.826 212.948C187.048 215.732 187.981 217.897 190.624 217.897C192.179 217.897 193.889 216.969 194.822 215.268C195.133 214.804 195.289 214.34 195.444 213.876L195.911 211.401Z" fill="black"></path>
<path d="M205.703 199.49H208.191L205.859 208.152C206.481 207.378 207.258 206.759 208.191 206.295C209.124 205.831 210.057 205.677 210.99 205.677C212.856 205.677 215.499 206.759 214.255 211.554L212.078 219.752H209.59L211.612 211.864C212.234 209.698 211.923 207.842 209.435 207.842C207.725 207.842 206.17 208.925 205.392 210.317C205.082 210.626 205.082 211.09 204.926 211.554L202.749 219.907H200.261L205.703 199.49Z" fill="black"></path>
<path d="M223.74 202.74L222.807 205.988H226.383L225.916 207.844H222.34L220.319 215.268C219.853 216.97 220.164 217.898 221.563 217.898C222.185 217.898 222.651 217.898 223.118 217.743L222.807 219.599C222.34 219.754 221.408 219.909 220.475 219.909C219.231 219.909 218.453 219.444 217.987 218.826C217.52 218.052 217.52 216.815 217.987 215.268L220.008 207.689H217.831L218.298 205.833H220.475L221.097 203.204L223.74 202.74Z" fill="black"></path>
<path d="M228.717 213.408C227.94 216.811 229.651 218.203 232.294 218.203C234.159 218.203 235.247 217.894 236.335 217.43V219.286C235.404 219.75 233.692 220.214 231.515 220.214C227.162 220.214 225.452 217.43 226.54 213.254C227.629 209.077 230.894 205.829 234.937 205.829C239.445 205.829 239.6 209.851 238.979 212.326C238.824 212.79 238.669 213.254 238.512 213.563H228.717V213.408ZM236.647 211.552C237.114 210.005 237.114 207.531 234.159 207.531C231.515 207.531 229.806 209.851 229.184 211.552H236.647Z" fill="black"></path>
<path d="M242.553 210.318C243.02 208.617 243.332 207.225 243.641 205.987H245.818L245.196 208.771H245.351C246.439 206.916 248.306 205.678 250.016 205.678C250.328 205.678 250.483 205.678 250.638 205.678L250.016 207.998C249.707 207.998 249.55 207.998 249.24 207.998C247.53 207.998 245.818 209.39 245.042 211.246C244.887 211.556 244.73 212.02 244.575 212.484L242.708 219.908H240.222L242.553 210.318Z" fill="black"></path>
<path d="M262.611 202.737H256.703L257.325 200.571H271.63L271.008 202.737H265.1L260.59 219.906H258.103L262.611 202.737Z" fill="black"></path>
<path d="M281.117 212.791C279.717 217.895 275.673 220.215 272.254 220.215C268.522 220.215 266.345 217.431 267.434 213.1C268.677 208.46 272.408 205.831 276.297 205.831C280.184 205.676 282.205 208.615 281.117 212.791ZM269.922 212.946C269.143 216.039 270.232 218.205 272.72 218.205C275.206 218.205 277.54 215.884 278.317 212.791C278.938 210.471 278.474 207.532 275.518 207.532C272.72 207.532 270.698 210.316 269.922 212.946Z" fill="black"></path>
<path d="M285.006 209.696C285.315 208.304 285.627 207.067 285.937 205.984H288.114L287.649 208.304H287.804C288.892 206.912 290.602 205.829 292.933 205.829C294.8 205.829 295.889 206.912 296.043 208.614C296.665 207.84 297.444 207.221 298.065 206.757C298.999 206.139 300.087 205.829 301.33 205.829C303.197 205.829 305.683 207.067 304.44 211.861L302.264 220.059H299.775L301.797 212.326C302.576 209.696 301.952 207.995 299.932 207.995C298.532 207.995 297.132 209.078 296.355 210.315C296.201 210.624 295.889 211.088 295.889 211.552L293.712 220.059H291.224L293.4 211.707C294.024 209.542 293.4 207.995 291.536 207.995C289.98 207.995 288.425 209.232 287.804 210.469C287.492 210.779 287.337 211.243 287.337 211.707L285.161 220.059H282.362L285.006 209.696Z" fill="black"></path>
<path d="M320.765 212.791C319.364 217.895 315.323 220.215 311.901 220.215C308.169 220.215 305.993 217.431 307.081 213.1C308.327 208.46 312.058 205.831 315.945 205.831C319.986 205.676 321.853 208.615 320.765 212.791ZM309.725 212.946C308.948 216.039 310.036 218.205 312.523 218.205C315.011 218.205 317.343 215.884 318.121 212.791C318.743 210.471 318.276 207.532 315.323 207.532C312.523 207.532 310.503 210.316 309.725 212.946Z" fill="black"></path>
<path d="M324.653 210.318C325.12 208.617 325.432 207.225 325.742 205.987H327.918L327.297 208.771H327.451C328.54 206.916 330.407 205.678 332.117 205.678C332.429 205.678 332.583 205.678 332.738 205.678L332.117 208.153C331.807 208.153 331.65 208.153 331.34 208.153C329.628 208.153 327.918 209.545 327.142 211.401C326.985 211.71 326.83 212.174 326.675 212.638L324.808 220.063H322.322L324.653 210.318Z" fill="black"></path>
<path d="M334.136 210.318C334.603 208.617 334.915 207.225 335.224 205.987H337.401L336.779 208.771H336.934C338.022 206.916 339.889 205.678 341.599 205.678C341.911 205.678 342.066 205.678 342.221 205.678L341.599 207.998C341.287 207.998 341.133 207.998 340.823 207.998C339.111 207.998 337.401 209.39 336.625 211.246C336.467 211.556 336.313 212.02 336.158 212.484L334.291 219.908H331.805L334.136 210.318Z" fill="black"></path>
<path d="M355.283 212.791C353.882 217.895 349.839 220.215 346.419 220.215C342.688 220.215 340.511 217.431 341.599 213.1C342.842 208.46 346.574 205.831 350.463 205.831C354.349 205.676 356.371 208.615 355.283 212.791ZM344.243 212.946C343.464 216.039 344.555 218.205 347.041 218.205C349.529 218.205 351.861 215.884 352.639 212.791C353.261 210.471 352.794 207.532 349.839 207.532C346.886 207.532 344.864 210.316 344.243 212.946Z" fill="black"></path>
<path d="M361.034 205.984V212.944C361.034 214.491 361.034 215.883 360.879 217.275H361.034C361.658 215.883 362.589 214.336 363.367 212.944L367.409 205.829H369.588L369.897 212.79C370.052 214.491 370.052 215.883 369.897 217.275H370.052C370.676 215.883 371.452 214.491 372.229 212.79L375.96 205.829H378.449L370.364 219.595H368.033L367.566 212.944C367.409 211.397 367.409 210.005 367.566 208.459C366.787 210.16 366.011 211.552 365.077 213.099L361.191 219.75H358.857L358.236 205.984H361.034Z" fill="black"></path>
</svg>