<svg xmlns="http://www.w3.org/2000/svg" width="303" height="140" viewBox="0 0 303 140" fill="none"><path d="M 251 1.31 L 240.77 1.31 L 240.77 30.075 C 240.77 34.78 238.595 37.266 234.702 37.266 C 231.072 37.266 228.698 34.847 228.698 30.859 C 228.698 26.937 231.072 24.45 235.029 24.45 C 236.087 24.45 237.409 24.716 239.122 25.239 L 239.122 14.647 C 237.206 14.257 235.757 14.122 234.632 14.122 C 225.068 14.122 218.202 21.184 218.202 30.859 C 218.202 40.663 225.196 47.607 234.632 47.607 C 241.235 47.607 246.912 43.999 249.549 38.246 C 251 35.108 251 31.907 251 28.177 L 251 1.31 Z M 203.35 47.015 L 213.576 47.015 L 213.576 33.475 C 213.576 29.745 213.576 26.477 212.125 23.341 C 209.484 17.586 203.808 13.994 197.21 13.994 C 187.773 13.994 180.779 20.923 180.779 30.732 C 180.779 40.401 187.64 47.476 197.21 47.476 C 198.332 47.476 199.785 47.342 201.7 46.939 L 201.7 36.35 C 199.983 36.871 198.659 37.202 197.606 37.202 C 193.649 37.202 191.272 34.65 191.272 30.732 C 191.272 26.805 193.714 24.323 197.076 24.323 C 201.235 24.323 203.35 26.74 203.35 31.513 L 203.35 47.015 Z M 162.185 30.14 L 157.832 14.647 L 147.258 14.647 L 155.982 41.322 C 157.368 45.569 159.874 47.607 163.701 47.607 C 167.53 47.607 170.102 45.569 171.491 41.322 L 180.134 14.647 L 169.575 14.647 L 165.285 30.14 C 164.624 32.561 164.099 34.714 163.701 36.677 C 163.305 34.65 162.845 32.493 162.185 30.14 Z M 122.621 47.015 L 132.586 47.015 L 132.586 34.847 C 132.586 27.461 135.621 24.45 143.08 24.45 L 143.54 24.45 L 143.54 14.647 L 142.285 14.647 C 137.403 14.647 134.171 16.019 132.056 19.487 L 132.056 14.647 L 122.621 14.647 L 122.621 47.015 Z M 104.519 5.889 C 104.519 9.159 107.227 11.837 110.524 11.837 C 113.825 11.837 116.527 9.159 116.527 5.889 C 116.527 2.619 113.825 0 110.524 0 C 107.227 0 104.519 2.619 104.519 5.889 Z M 105.311 47.015 L 115.737 47.015 L 115.737 14.647 L 105.311 14.647 L 105.311 47.015 Z M 68.761 47.015 L 78.992 47.015 L 78.992 28.961 C 78.992 25.891 81.037 23.864 83.741 23.864 C 86.45 23.864 88.494 25.891 88.494 28.961 L 88.494 47.015 L 98.722 47.015 L 98.722 29.946 C 98.722 19.681 93.573 13.994 86.45 13.994 C 83.676 13.994 81.105 14.91 78.992 16.737 L 78.992 1.31 L 68.761 1.31 L 68.761 47.015 Z M 38.519 37.856 L 38.519 47.015 L 49.34 47.015 C 53.432 47.015 56.73 47.015 59.438 45.243 C 62.008 43.541 63.465 40.928 63.465 37.856 C 63.465 33.148 60.558 30.205 54.556 27.72 L 50.002 25.824 C 49.539 25.63 49.141 25.105 49.141 24.583 C 49.141 23.864 49.801 23.341 50.724 23.341 L 61.747 23.341 L 61.747 14.647 L 50.594 14.647 C 43.205 14.647 39.047 18.175 39.047 23.605 C 39.047 27.981 41.686 31.117 47.031 33.344 L 51.783 35.305 C 52.311 35.567 52.708 36.026 52.708 36.61 C 52.708 37.461 52.046 37.856 50.86 37.856 L 38.519 37.856 Z M 22.571 47.015 L 32.798 47.015 L 32.798 33.475 C 32.798 29.745 32.798 26.477 31.348 23.341 C 28.713 17.586 23.032 13.992 16.433 13.992 C 6.996 13.992 0 20.923 0 30.732 C 0 40.401 6.868 47.476 16.433 47.476 C 17.558 47.476 19.006 47.342 20.921 46.939 L 20.921 36.35 C 19.208 36.871 17.887 37.202 16.831 37.202 C 12.873 37.202 10.493 34.65 10.493 30.732 C 10.493 26.805 12.936 24.323 16.303 24.323 C 20.46 24.323 22.571 26.74 22.571 31.513 L 22.571 47.015 Z" fill="rgb(226,0,15)" fill-rule="evenodd" transform="matrix(1 0 0 1 27 23) matrix(1 0 0 1 0 0.000)"></path><path d="M 15.9 13.968 C 15.9 18.415 12.471 21.872 8.295 21.872 C 5.74 21.872 3.817 20.728 2.614 18.896 L 2.614 21.481 L 0 21.481 L 0 0.668 L 2.614 0.668 L 2.614 9.039 C 3.817 7.205 5.74 6.065 8.295 6.065 C 12.471 6.065 15.9 9.52 15.9 13.968 Z M 13.284 13.968 C 13.284 10.902 10.969 8.588 7.965 8.588 C 4.928 8.588 2.614 10.902 2.614 13.968 C 2.614 17.031 4.928 19.346 7.965 19.346 C 10.969 19.346 13.284 17.031 13.284 13.968 Z M 31.069 6.454 L 24.94 22.412 C 23.676 25.777 21.331 27.701 18.268 27.49 L 18.268 25.058 C 20.281 25.206 21.543 23.976 22.324 21.993 L 22.596 21.421 L 16.044 6.454 L 18.839 6.454 L 23.947 18.236 L 28.274 6.454 L 31.069 6.454 Z M 92.787 13.646 L 87.705 6.449 L 92.262 6.449 L 95.401 10.892 L 98.403 6.449 L 102.651 6.449 L 97.539 13.895 L 102.93 21.481 L 98.371 21.481 L 94.957 16.674 L 91.675 21.481 L 87.424 21.481 L 92.787 13.646 Z M 114.301 16.868 C 114.8 18.062 115.635 18.786 117.135 18.758 C 118.193 18.758 118.913 18.312 118.913 17.481 C 118.913 16.532 118.359 16.2 116.248 15.34 C 113.607 14.339 111.855 12.869 111.855 10.535 C 111.855 8.089 113.689 6.087 116.996 6.087 C 120.247 6.087 122.053 7.505 122.499 9.7 L 119.554 10.951 C 119.222 9.782 118.328 9.144 117.11 9.144 C 116.08 9.144 115.549 9.616 115.549 10.31 C 115.549 11.145 116.3 11.45 118.109 12.227 C 120.774 13.338 122.634 14.672 122.634 17.23 C 122.634 19.395 120.888 21.841 117.11 21.841 C 114.301 21.841 111.941 20.48 111.301 18.176 L 114.301 16.868 Z M 62.855 21.481 L 66.802 21.481 L 66.802 6.455 L 62.855 6.455 L 62.855 21.481 Z M 62.855 3.945 L 66.802 3.945 L 66.802 0 L 62.855 0 L 62.855 3.945 Z M 105.037 21.481 L 108.984 21.481 L 108.984 6.455 L 105.037 6.455 L 105.037 21.481 Z M 105.037 3.945 L 108.984 3.945 L 108.984 0 L 105.037 0 L 105.037 3.945 Z M 55.556 0 L 59.504 0 L 59.504 21.481 L 55.556 21.481 L 55.556 0 Z M 48.304 6.456 L 48.304 8.013 C 47.679 7.126 45.808 6.093 43.631 6.093 C 39.938 6.093 36.267 9.287 36.044 13.561 C 36.035 13.696 36.033 13.832 36.033 13.968 C 36.033 14.106 36.035 14.244 36.044 14.374 C 36.267 18.648 39.938 21.841 43.631 21.841 C 45.808 21.841 47.679 20.808 48.304 19.921 L 48.304 21.479 L 52.279 21.479 L 52.279 6.456 L 48.304 6.456 Z M 44.017 18.373 C 41.644 18.373 39.72 16.403 39.72 13.968 C 39.72 11.536 41.644 9.561 44.017 9.561 C 46.389 9.561 48.311 11.536 48.311 13.968 C 48.311 16.403 46.389 18.373 44.017 18.373 Z M 81.401 6.456 L 81.401 8.013 C 80.773 7.126 78.902 6.093 76.727 6.093 C 73.033 6.093 69.359 9.287 69.138 13.561 C 69.131 13.696 69.126 13.832 69.126 13.968 C 69.126 14.106 69.131 14.244 69.138 14.374 C 69.359 18.648 73.033 21.841 76.727 21.841 C 78.902 21.841 80.773 20.808 81.401 19.921 L 81.401 21.479 L 85.373 21.479 L 85.373 6.456 L 81.401 6.456 Z M 77.109 18.373 C 74.74 18.373 72.817 16.403 72.817 13.968 C 72.817 11.536 74.74 9.561 77.109 9.561 C 79.484 9.561 81.407 11.536 81.407 13.968 C 81.407 16.403 79.484 18.373 77.109 18.373 Z" fill="rgb(93,93,92)" fill-rule="evenodd" transform="matrix(1 0 0 1 27 23) matrix(1 0 0 1 64.279 73.656)"></path></svg>