<svg xmlns="http://www.w3.org/2000/svg" width="395.466" height="80.411" viewBox="0 0 395.466 80.411" fill="none"><path d="M 1.273 1.408 L 1.415 0.986 L 1.981 0.704 L 4.103 0 L 4.245 0 L 4.386 0 L 4.811 0.141 L 4.952 0.704 L 4.952 3.521 L 6.509 3.521 L 6.933 3.661 L 7.075 4.225 L 7.075 5.915 L 6.933 6.478 L 6.509 6.619 L 4.952 6.619 L 4.952 13.942 L 4.811 14.505 L 4.245 14.646 L 2.122 14.646 C 1.698 14.646 1.415 14.364 1.415 13.942 L 1.415 6.619 L 0.707 6.619 C 0.283 6.619 0 6.337 0 5.915 L 0 4.225 C 0 3.802 0.283 3.521 0.707 3.521 L 1.415 3.521 L 1.273 1.408 Z" fill="rgb(116,187,68)" fill-rule="nonzero" transform="matrix(1 0 0 1 -0.021 0) matrix(1 0 0 1 141.370 61.400)"></path><path d="M 0 0.845 L 0 0.563 L 0.141 0.282 L 0.566 0.141 L 1.981 0.141 L 2.264 0.141 L 2.405 0.282 L 2.547 0.563 L 2.688 0.845 L 2.83 0.986 L 2.971 1.267 L 3.113 1.549 L 3.254 1.69 L 3.82 1.127 L 4.386 0.563 L 4.952 0.141 L 5.801 0 L 6.65 0.141 L 7.358 0.422 L 8.065 0.704 L 8.772 1.267 C 9.197 1.549 9.197 1.831 9.055 2.253 L 8.206 3.661 L 7.782 3.943 L 7.216 3.802 L 6.367 3.239 L 5.377 3.098 L 4.811 3.239 L 4.386 3.521 L 3.962 3.943 L 3.537 4.506 L 3.537 11.125 L 3.396 11.689 L 2.83 11.829 L 0.707 11.829 C 0.283 11.829 0 11.548 0 11.125 L 0 0.845 Z" fill="rgb(116,187,68)" fill-rule="nonzero" transform="matrix(1 0 0 1 -0.021 0) matrix(1 0 0 1 150.426 64.357)"></path><path d="M 12.168 10.844 L 12.168 11.125 L 12.027 11.407 L 11.744 11.548 L 11.461 11.548 L 9.621 11.548 L 9.338 11.548 L 9.197 11.407 L 9.055 11.125 L 8.914 10.844 L 8.631 10.139 L 8.065 10.703 L 7.358 11.266 L 6.65 11.689 L 5.801 11.829 C 5.235 11.829 4.669 11.829 4.245 11.689 C 3.679 11.548 3.254 11.407 2.83 11.125 C 2.405 10.844 1.981 10.562 1.698 10.139 C 1.273 9.717 0.99 9.435 0.707 8.872 C 0.424 8.45 0.283 7.886 0.141 7.464 C 0 6.9 0 6.478 0 5.915 C 0 5.07 0.141 4.366 0.424 3.521 C 0.707 2.817 1.132 2.112 1.698 1.69 C 2.264 1.127 2.83 0.704 3.537 0.422 C 4.245 0.141 5.094 0 5.801 0 C 6.226 0 6.509 0 6.792 0.141 L 7.64 0.563 L 8.348 1.127 L 8.914 1.831 L 9.197 0.704 L 9.338 0.282 L 9.48 0.141 L 9.621 0 L 9.904 0 L 11.319 0 L 11.602 0 L 11.885 0.141 L 12.027 0.422 L 12.027 0.704 L 12.027 10.844 M 3.113 5.633 C 3.113 6.056 3.113 6.478 3.254 6.76 L 3.82 7.605 L 4.669 8.168 C 4.952 8.309 5.377 8.45 5.801 8.45 C 6.226 8.45 6.65 8.309 6.933 8.168 L 7.782 7.605 L 8.348 6.76 C 8.489 6.478 8.489 6.056 8.489 5.633 C 8.489 5.211 8.489 4.929 8.348 4.506 L 7.782 3.521 L 6.933 2.957 C 6.65 2.817 6.226 2.676 5.801 2.676 C 5.377 2.676 5.094 2.817 4.669 2.957 L 3.82 3.521 L 3.254 4.506 C 3.254 4.929 3.113 5.351 3.113 5.633 Z" fill="rgb(116,187,68)" fill-rule="nonzero" transform="matrix(1 0 0 1 -0.021 0) matrix(1 0 0 1 161.462 64.639)"></path><path d="M 0.283 0.563 L 0.566 0.422 L 0.849 0.422 L 2.264 0.422 L 2.547 0.422 L 2.688 0.563 L 2.83 0.845 L 2.971 1.127 L 3.254 2.253 L 3.679 1.549 L 4.386 0.845 L 5.377 0.282 C 5.801 0.141 6.226 0 6.65 0 C 7.358 0 7.923 0.141 8.489 0.422 C 9.055 0.704 9.48 0.986 9.904 1.549 C 10.329 1.972 10.612 2.535 10.753 3.098 C 11.036 3.661 11.036 4.366 11.036 5.07 L 11.036 10.984 L 10.895 11.548 L 10.329 11.829 L 8.206 11.829 L 7.641 11.689 L 7.499 11.125 L 7.499 5.211 L 7.358 4.506 L 6.933 3.943 L 6.226 3.521 L 5.518 3.38 L 4.811 3.521 L 4.245 3.943 L 3.82 4.506 L 3.537 5.211 L 3.537 11.125 L 3.537 11.407 L 3.396 11.689 L 3.113 11.829 L 2.83 11.829 L 0.707 11.829 L 0.141 11.689 L 0 11.125 L 0 0.986 L 0.141 0.704 L 0.283 0.563 Z" fill="rgb(116,187,68)" fill-rule="nonzero" transform="matrix(1 0 0 1 -0.021 0) matrix(1 0 0 1 176.460 64.216)"></path><path d="M 2.264 8.309 L 2.83 8.731 L 3.396 9.013 L 3.82 9.154 L 4.103 9.154 L 4.528 9.154 L 5.094 9.013 L 5.518 8.731 L 5.66 8.309 L 5.518 7.886 L 5.235 7.605 L 4.811 7.464 L 4.245 7.323 C 3.537 7.182 2.971 6.9 2.405 6.619 C 1.981 6.337 1.556 6.056 1.273 5.774 C 0.99 5.492 0.849 5.07 0.707 4.647 C 0.566 4.225 0.566 3.802 0.566 3.38 C 0.566 2.817 0.707 2.394 0.849 1.972 C 0.99 1.549 1.273 1.267 1.698 0.986 C 2.122 0.704 2.547 0.422 2.971 0.282 C 3.537 0.141 4.103 0 4.669 0 C 5.094 0 5.377 0 5.801 0.141 L 6.792 0.422 L 7.641 0.986 L 8.489 1.69 L 8.631 1.972 L 8.489 2.253 L 7.782 2.817 L 7.075 3.38 L 6.792 3.521 L 6.65 3.521 L 6.509 3.38 L 6.367 3.239 L 5.66 2.817 L 4.952 2.676 L 4.245 2.817 L 3.962 3.239 L 4.103 3.661 L 4.528 3.943 L 4.952 4.084 L 5.377 4.225 C 5.943 4.366 6.367 4.647 6.933 4.788 C 7.358 4.929 7.782 5.211 8.065 5.492 C 8.348 5.774 8.631 6.196 8.772 6.619 C 8.914 7.041 9.055 7.605 9.055 8.168 C 9.055 8.731 8.914 9.294 8.631 9.717 C 8.348 10.139 8.065 10.562 7.641 10.844 C 7.216 11.125 6.792 11.407 6.084 11.548 C 5.518 11.689 4.952 11.829 4.245 11.829 C 3.82 11.829 3.537 11.829 3.113 11.689 C 2.688 11.689 2.405 11.548 1.981 11.407 L 0.99 10.844 L 0.141 9.999 L 0 9.717 L 0 9.435 L 0 9.154 L 0.141 9.013 L 1.273 7.886 L 1.698 7.745 L 2.264 8.309 Z" fill="rgb(116,187,68)" fill-rule="nonzero" transform="matrix(1 0 0 1 -0.021 0) matrix(1 0 0 1 189.901 64.216)"></path><path d="M 1.839 3.943 C 1.839 3.38 1.981 2.817 2.264 2.394 C 2.547 1.831 2.83 1.408 3.254 1.127 C 3.679 0.704 4.103 0.422 4.669 0.282 C 5.235 0 5.801 0 6.367 0 L 6.509 0 L 6.933 0.141 L 7.075 0.704 L 7.075 2.394 L 6.933 2.957 L 6.509 3.239 L 6.367 3.239 L 5.943 3.239 L 5.66 3.38 L 5.377 3.661 L 5.235 3.943 L 5.235 4.929 L 6.65 4.929 L 7.075 5.07 L 7.216 5.633 L 7.216 7.323 L 7.075 7.886 L 6.65 8.027 L 5.235 8.027 L 5.235 14.505 L 4.952 15.068 L 4.386 15.209 L 2.405 15.209 L 1.839 15.068 L 1.698 14.646 L 1.698 8.168 L 0.707 8.168 L 0.141 8.027 L 0 7.464 L 0 5.774 L 0.141 5.211 L 0.707 5.07 L 1.698 5.07 L 1.698 3.943" fill="rgb(116,187,68)" fill-rule="nonzero" transform="matrix(1 0 0 1 -0.021 0) matrix(1 0 0 1 200.938 60.837)"></path><path d="M 0 5.774 C 0 5.211 0.141 4.647 0.283 4.225 C 0.424 3.661 0.566 3.239 0.849 2.817 C 1.132 2.394 1.415 1.972 1.839 1.549 C 2.264 1.127 2.547 0.845 3.113 0.704 C 3.537 0.422 4.103 0.282 4.528 0.141 C 5.094 0 5.518 0 6.084 0 C 6.933 0 7.64 0.141 8.348 0.422 C 9.055 0.704 9.763 1.127 10.187 1.69 C 10.753 2.253 11.178 2.817 11.461 3.521 C 11.744 4.225 11.885 5.07 11.885 5.915 C 11.885 6.478 11.744 7.041 11.744 7.464 C 11.602 8.027 11.461 8.45 11.178 8.872 C 10.895 9.294 10.612 9.717 10.187 10.139 C 9.763 10.562 9.48 10.844 8.914 11.125 C 8.489 11.407 7.923 11.548 7.499 11.689 C 6.933 11.829 6.509 11.829 5.943 11.829 C 5.377 11.829 4.811 11.829 4.386 11.689 C 3.82 11.548 3.396 11.407 2.971 11.125 C 2.547 10.844 2.122 10.562 1.698 10.139 C 1.273 9.717 0.99 9.435 0.707 8.872 C 0.424 8.45 0.283 7.886 0.141 7.464 C 0.141 6.9 0 6.337 0 5.774 Z M 3.396 5.774 C 3.396 6.196 3.396 6.619 3.537 6.9 L 4.103 7.745 L 4.952 8.309 C 5.235 8.45 5.66 8.59 6.084 8.59 C 6.509 8.59 6.792 8.45 7.216 8.309 L 8.065 7.745 L 8.631 6.9 C 8.772 6.619 8.772 6.196 8.772 5.774 C 8.772 5.351 8.772 5.07 8.631 4.647 L 8.065 3.661 L 7.216 3.098 C 6.933 2.957 6.509 2.817 6.084 2.817 C 5.66 2.817 5.377 2.957 4.952 3.098 L 4.103 3.661 L 3.537 4.647 C 3.396 5.07 3.396 5.492 3.396 5.774 Z" fill="rgb(116,187,68)" fill-rule="nonzero" transform="matrix(1 0 0 1 -0.021 0) matrix(1 0 0 1 209.852 64.498)"></path><path d="M 0 0.845 L 0.141 0.563 L 0.283 0.282 L 0.707 0.141 L 2.122 0.141 L 2.405 0.141 L 2.547 0.282 L 2.688 0.563 L 2.83 0.845 L 2.83 0.986 L 2.971 1.267 L 3.113 1.549 L 3.254 1.69 L 3.82 1.127 L 4.386 0.563 L 4.952 0.141 L 5.801 0 L 6.65 0.141 L 7.358 0.422 L 8.065 0.704 L 8.772 1.267 C 9.197 1.549 9.338 1.831 9.055 2.253 L 8.206 3.661 L 7.782 3.943 L 7.216 3.802 L 6.226 3.239 L 5.377 3.098 L 4.811 3.239 L 4.386 3.521 L 3.962 3.943 L 3.537 4.506 L 3.537 11.125 L 3.396 11.689 L 2.83 11.829 L 0.849 11.829 C 0.424 11.829 0.141 11.548 0.141 11.125 L 0.141 0.845" fill="rgb(116,187,68)" fill-rule="nonzero" transform="matrix(1 0 0 1 -0.021 0) matrix(1 0 0 1 224.425 64.357)"></path><path d="M 0.141 0.563 L 0.424 0.422 L 0.707 0.422 L 2.122 0.422 L 2.405 0.422 L 2.547 0.563 L 2.688 0.845 L 2.83 1.127 L 3.113 2.253 L 3.396 1.549 L 3.962 0.845 L 4.811 0.282 C 5.094 0.141 5.518 0 6.084 0 C 6.792 0 7.499 0.141 8.065 0.563 C 8.631 0.845 9.197 1.267 9.48 1.831 L 9.904 1.267 L 10.612 0.704 L 11.602 0.282 C 12.027 0.141 12.31 0.141 12.734 0.141 C 13.442 0.141 14.008 0.282 14.574 0.563 C 15.139 0.845 15.564 1.127 15.988 1.69 C 16.413 2.112 16.696 2.676 16.837 3.239 C 16.979 3.802 17.12 4.506 17.12 5.211 L 17.12 11.125 L 16.979 11.689 L 16.554 11.829 L 14.432 11.829 L 13.866 11.689 L 13.725 11.125 L 13.725 5.07 L 13.583 4.366 L 13.3 3.802 L 12.734 3.38 L 12.027 3.38 L 11.319 3.521 L 10.753 3.943 L 10.329 4.506 L 10.187 5.211 L 10.187 11.125 L 10.046 11.689 L 9.621 11.829 L 7.499 11.829 L 6.933 11.689 L 6.792 11.125 L 6.792 5.07 L 6.65 4.366 L 6.367 3.802 L 5.801 3.38 L 5.094 3.239 L 4.386 3.38 L 3.82 3.802 L 3.396 4.366 L 3.254 5.07 L 3.254 10.984 L 3.254 11.266 L 3.113 11.548 L 2.83 11.689 L 2.547 11.689 L 0.707 11.689 L 0.141 11.548 L 0 10.984 L 0 0.845 L 0.141 0.563 Z" fill="rgb(116,187,68)" fill-rule="nonzero" transform="matrix(1 0 0 1 -0.021 0) matrix(1 0 0 1 235.603 64.216)"></path><path d="M 0 0.704 L 0.141 0.141 L 0.707 0 L 2.83 0 L 3.396 0.141 L 3.537 0.704 L 3.537 2.535 L 3.537 2.817 L 3.396 3.098 L 3.113 3.239 L 2.83 3.38 L 0.707 3.38 C 0.283 3.38 0 3.098 0 2.676 L 0 0.704 Z M 0 5.351 L 0.141 4.788 L 0.707 4.647 L 2.83 4.647 L 3.113 4.647 L 3.254 4.788 L 3.396 5.07 L 3.537 5.351 L 3.537 15.491 L 3.396 16.054 L 2.83 16.195 L 0.707 16.195 C 0.283 16.195 0 15.913 0 15.491 L 0 5.351 Z" fill="rgb(116,187,68)" fill-rule="nonzero" transform="matrix(1 0 0 1 -0.021 0) matrix(1 0 0 1 255.694 59.992)"></path><path d="M 0.283 0.563 L 0.566 0.422 L 0.849 0.422 L 2.264 0.422 L 2.547 0.422 L 2.688 0.563 L 2.83 0.845 L 2.971 1.127 L 3.254 2.253 L 3.679 1.549 L 4.386 0.845 L 5.377 0.282 C 5.801 0.141 6.226 0 6.65 0 C 7.358 0 7.923 0.141 8.489 0.422 C 9.055 0.704 9.48 0.986 9.904 1.549 C 10.329 1.972 10.612 2.535 10.895 3.098 C 11.178 3.661 11.178 4.366 11.178 5.07 L 11.178 10.984 L 11.036 11.548 L 10.612 11.689 L 8.206 11.689 L 7.641 11.548 L 7.499 10.984 L 7.499 5.07 L 7.358 4.366 L 6.933 3.802 L 6.226 3.38 L 5.518 3.239 L 4.811 3.38 L 4.245 3.802 L 3.82 4.366 L 3.537 5.07 L 3.537 10.984 L 3.537 11.266 L 3.396 11.548 L 3.113 11.689 L 2.83 11.689 L 0.707 11.689 L 0.141 11.548 L 0 10.984 L 0 0.845 L 0.141 0.563 L 0.283 0.563 Z" fill="rgb(116,187,68)" fill-rule="nonzero" transform="matrix(1 0 0 1 -0.021 0) matrix(1 0 0 1 262.062 64.216)"></path><path d="M 8.348 11.266 L 8.489 10.562 L 8.489 9.717 L 7.923 10.28 L 7.358 10.844 L 6.65 11.266 L 5.66 11.407 C 4.811 11.407 4.103 11.266 3.396 10.984 C 2.688 10.703 2.122 10.28 1.556 9.858 C 0.99 9.294 0.707 8.731 0.424 8.027 C 0.141 7.323 0 6.619 0 5.774 C 0 4.929 0.141 4.225 0.424 3.521 C 0.707 2.817 1.132 2.112 1.556 1.69 C 2.122 1.127 2.688 0.704 3.396 0.422 C 4.103 0.141 4.811 0 5.66 0 C 6.084 0 6.367 0 6.65 0.141 L 7.499 0.563 L 8.206 1.127 L 8.772 1.831 L 9.055 0.704 L 9.197 0.422 L 9.338 0.282 L 9.48 0.141 L 9.763 0.141 L 11.178 0.141 L 11.461 0.141 L 11.744 0.282 L 11.885 0.563 L 11.885 0.845 L 11.885 10.139 C 11.885 11.125 11.744 11.97 11.461 12.674 C 11.178 13.378 10.753 14.083 10.187 14.505 C 9.621 15.068 9.055 15.35 8.348 15.632 C 7.64 15.913 6.792 16.054 5.943 16.054 C 5.66 16.054 5.235 16.054 4.952 15.913 C 4.528 15.913 4.245 15.772 3.82 15.632 C 3.396 15.491 3.113 15.35 2.688 15.209 L 1.698 14.646 L 1.556 14.505 L 1.415 14.223 L 1.415 13.942 L 1.556 13.66 L 2.405 12.533 L 2.83 12.252 L 3.396 12.533 L 3.962 12.815 L 4.528 12.956 L 5.094 13.097 L 5.66 13.097 L 6.509 12.956 L 7.358 12.674 L 8.065 12.111 L 8.348 11.266 Z M 3.254 5.774 C 3.254 6.196 3.254 6.619 3.396 6.9 L 3.962 7.745 L 4.811 8.309 C 5.094 8.45 5.518 8.59 5.943 8.59 C 6.367 8.59 6.65 8.59 7.075 8.45 L 7.923 7.886 L 8.489 7.041 C 8.631 6.76 8.772 6.337 8.772 5.915 L 8.772 5.633 L 8.489 4.647 L 7.923 3.802 L 7.075 3.239 C 6.792 3.098 6.367 2.957 5.943 2.957 C 5.518 2.957 5.235 3.098 4.811 3.239 L 3.962 3.802 L 3.396 4.647 C 3.254 5.07 3.254 5.492 3.254 5.774 Z" fill="rgb(116,187,68)" fill-rule="nonzero" transform="matrix(1 0 0 1 -0.021 0) matrix(1 0 0 1 275.928 64.498)"></path><path d="M 10.046 10.421 C 9.48 10.844 8.914 11.266 8.206 11.548 C 7.499 11.829 6.792 11.97 6.084 11.97 C 5.235 11.97 4.528 11.829 3.679 11.548 C 2.971 11.266 2.264 10.844 1.698 10.28 C 1.132 9.717 0.707 9.154 0.424 8.45 C 0.141 7.745 0 6.9 0 6.056 C 0 5.492 0 5.07 0.141 4.506 C 0.283 4.084 0.424 3.521 0.707 3.098 C 0.99 2.676 1.273 2.253 1.556 1.831 C 1.839 1.408 2.264 1.127 2.688 0.845 C 3.113 0.563 3.537 0.422 4.103 0.282 C 4.669 0.141 5.094 0 5.66 0 C 6.226 0 6.65 0 7.075 0.141 C 7.499 0.282 8.065 0.422 8.348 0.704 C 8.772 0.986 9.197 1.267 9.48 1.549 C 9.763 1.831 10.187 2.253 10.329 2.676 C 10.612 3.098 10.753 3.521 10.895 3.943 C 11.036 4.366 11.036 4.929 11.036 5.351 L 11.036 6.056 L 10.895 6.478 L 10.47 6.76 C 10.329 6.76 10.046 6.9 9.621 6.9 L 3.113 6.9 C 3.113 7.323 3.254 7.605 3.537 7.886 L 4.245 8.45 L 4.952 8.731 L 5.66 8.872 L 6.367 8.872 L 7.075 8.731 L 7.641 8.45 L 8.065 8.168 L 8.348 8.027 L 8.631 8.027 L 8.914 8.168 L 9.197 8.45 L 10.187 9.576 L 10.329 9.717 L 10.329 9.858 L 10.187 10.139 L 10.046 10.421 Z M 5.66 2.817 L 4.952 2.957 L 4.386 3.38 L 3.82 3.943 L 3.396 4.506 L 8.065 4.506 L 7.641 3.802 L 7.075 3.239 L 6.367 2.817 L 5.66 2.817 Z" fill="rgb(116,187,68)" fill-rule="nonzero" transform="matrix(1 0 0 1 -0.021 0) matrix(1 0 0 1 296.727 64.357)"></path><path d="M 0 0.704 L 0.141 0.282 L 0.566 0 L 2.83 0 L 3.113 0.141 L 3.254 0.282 L 3.396 0.422 L 3.396 0.704 L 3.396 14.223 L 3.254 14.787 L 2.688 14.928 L 0.566 14.928 L 0.141 14.787 L 0 14.223 L 0 0.704 Z" fill="rgb(116,187,68)" fill-rule="nonzero" transform="matrix(1 0 0 1 -0.021 0) matrix(1 0 0 1 310.734 61.118)"></path><path d="M 10.046 10.421 C 9.48 10.844 8.914 11.266 8.206 11.548 C 7.499 11.829 6.792 11.97 6.084 11.97 C 5.235 11.97 4.528 11.829 3.679 11.548 C 2.971 11.266 2.264 10.844 1.698 10.28 C 1.132 9.717 0.707 9.154 0.424 8.45 C 0.141 7.745 0 6.9 0 6.056 C 0 5.492 0 5.07 0.141 4.506 C 0.283 4.084 0.424 3.521 0.707 3.098 C 0.99 2.676 1.273 2.253 1.556 1.831 C 1.839 1.408 2.264 1.127 2.688 0.845 C 3.113 0.563 3.537 0.422 4.103 0.282 C 4.669 0.141 5.094 0 5.66 0 C 6.226 0 6.65 0 7.075 0.141 C 7.499 0.282 8.065 0.422 8.348 0.704 C 8.772 0.986 9.197 1.267 9.48 1.549 C 9.763 1.831 10.187 2.253 10.329 2.676 C 10.612 3.098 10.753 3.521 10.895 3.943 C 11.036 4.366 11.036 4.929 11.036 5.351 L 11.036 6.056 L 10.895 6.478 L 10.47 6.76 C 10.329 6.76 10.046 6.9 9.621 6.9 L 3.113 6.9 C 3.113 7.323 3.254 7.605 3.537 7.886 L 4.245 8.45 L 4.952 8.731 L 5.66 8.872 L 6.367 8.872 L 7.358 8.872 L 7.923 8.59 L 8.348 8.309 L 8.631 8.168 L 8.914 8.168 L 9.197 8.309 L 9.48 8.59 L 10.47 9.717 L 10.612 9.858 L 10.612 9.999 L 10.47 10.28 L 10.046 10.421 Z M 5.66 2.817 L 4.952 2.957 L 4.386 3.38 L 3.82 3.943 L 3.396 4.506 L 8.065 4.506 L 7.64 3.802 L 7.075 3.239 L 6.367 2.817 L 5.66 2.817 Z" fill="rgb(116,187,68)" fill-rule="nonzero" transform="matrix(1 0 0 1 -0.021 0) matrix(1 0 0 1 316.677 64.357)"></path><path d="M 0.424 0.563 L 0.707 0.422 L 0.99 0.422 L 2.405 0.422 L 2.688 0.422 L 2.83 0.563 L 2.971 0.845 L 3.113 1.127 L 3.396 2.253 L 3.679 1.549 L 4.245 0.845 L 5.094 0.282 C 5.377 0.141 5.801 0 6.367 0 C 7.075 0 7.782 0.141 8.348 0.563 C 8.914 0.845 9.48 1.267 9.763 1.831 L 10.187 1.267 L 10.895 0.704 L 11.885 0.282 C 12.31 0.141 12.593 0.141 13.017 0.141 C 13.725 0.141 14.291 0.282 14.857 0.563 C 15.422 0.845 15.847 1.127 16.271 1.69 C 16.696 2.112 16.979 2.676 17.12 3.239 C 17.262 3.802 17.403 4.506 17.403 5.211 L 17.403 11.125 L 17.262 11.689 L 16.837 11.829 L 14.715 11.829 L 14.149 11.689 L 14.008 11.125 L 14.008 5.07 L 13.866 4.366 L 13.583 3.802 L 13.017 3.38 L 12.31 3.239 L 11.602 3.38 L 11.036 3.802 L 10.612 4.366 L 10.47 5.07 L 10.47 10.984 L 10.329 11.548 L 9.904 11.689 L 7.782 11.689 L 7.216 11.548 L 7.075 10.984 L 7.075 4.929 L 6.933 4.225 L 6.65 3.661 L 6.084 3.239 L 5.377 3.098 L 4.669 3.239 L 4.103 3.661 L 3.679 4.225 L 3.537 4.929 L 3.537 10.844 L 3.537 11.125 L 3.396 11.407 L 3.113 11.548 L 2.83 11.548 L 0.707 11.548 L 0.141 11.407 L 0 10.844 L 0 0.704 L 0 0.422 L 0.424 0.563 Z" fill="rgb(116,187,68)" fill-rule="nonzero" transform="matrix(1 0 0 1 -0.021 0) matrix(1 0 0 1 330.543 64.216)"></path><path d="M 10.046 10.421 C 9.48 10.844 8.914 11.266 8.206 11.548 C 7.499 11.829 6.792 11.97 6.084 11.97 C 5.235 11.97 4.528 11.829 3.679 11.548 C 2.971 11.266 2.264 10.844 1.698 10.28 C 1.132 9.717 0.707 9.154 0.424 8.45 C 0.141 7.745 0 6.9 0 6.056 C 0 5.492 0 5.07 0.141 4.506 C 0.283 4.084 0.424 3.521 0.707 3.098 C 0.99 2.676 1.273 2.253 1.556 1.831 C 1.839 1.408 2.264 1.127 2.688 0.845 C 3.113 0.563 3.537 0.422 4.103 0.282 C 4.669 0.141 5.094 0 5.66 0 C 6.226 0 6.65 0 7.075 0.141 C 7.499 0.282 8.065 0.422 8.348 0.704 C 8.772 0.986 9.197 1.267 9.48 1.549 C 9.763 1.831 10.187 2.253 10.329 2.676 C 10.612 3.098 10.753 3.521 10.895 3.943 C 11.036 4.366 11.036 4.929 11.036 5.351 L 11.036 6.056 L 10.895 6.478 L 10.47 6.76 C 10.329 6.76 10.046 6.9 9.621 6.9 L 3.254 6.9 C 3.254 7.323 3.396 7.605 3.679 7.886 L 4.386 8.45 L 5.094 8.731 L 5.801 8.872 L 6.509 8.872 L 7.216 8.731 L 7.782 8.45 L 8.206 8.168 L 8.489 8.027 L 8.772 8.027 L 9.055 8.168 L 9.338 8.45 L 10.329 9.576 L 10.47 9.717 L 10.47 9.858 L 10.329 10.139 L 10.046 10.421 Z M 5.66 2.817 L 4.952 2.957 L 4.386 3.38 L 3.82 3.943 L 3.396 4.506 L 8.065 4.506 L 7.641 3.802 L 7.075 3.239 L 6.367 2.817 L 5.66 2.817 Z" fill="rgb(116,187,68)" fill-rule="nonzero" transform="matrix(1 0 0 1 -0.021 0) matrix(1 0 0 1 350.493 64.357)"></path><path d="M 0 0.563 L 0.283 0.422 L 0.566 0.422 L 1.981 0.422 L 2.264 0.422 L 2.405 0.563 L 2.547 0.845 L 2.688 1.127 L 2.971 2.253 L 3.396 1.549 L 4.103 0.845 L 5.094 0.282 C 5.518 0.141 5.943 0 6.367 0 C 7.075 0 7.64 0.141 8.206 0.422 C 8.772 0.704 9.197 0.986 9.621 1.549 C 10.046 1.972 10.329 2.535 10.612 3.098 C 10.895 3.661 10.895 4.366 10.895 5.07 L 10.895 10.984 L 10.753 11.548 L 10.329 11.689 L 8.206 11.689 L 7.64 11.548 L 7.499 10.984 L 7.499 5.07 L 7.357 4.366 L 6.933 3.802 L 6.226 3.38 L 5.518 3.239 L 4.811 3.38 L 4.245 3.802 L 3.82 4.366 L 3.537 5.07 L 3.537 10.984 L 3.537 11.266 L 3.396 11.548 L 3.113 11.689 L 2.83 11.689 L 0.707 11.689 L 0.141 11.548 L 0 10.984 L 0 0.845 L 0.141 0.563 L 0 0.563 Z" fill="rgb(116,187,68)" fill-rule="nonzero" transform="matrix(1 0 0 1 -0.021 0) matrix(1 0 0 1 364.642 64.216)"></path><path d="M 1.273 1.408 L 1.415 0.986 L 1.981 0.704 L 4.103 0 L 4.245 0 L 4.386 0 L 4.811 0.141 L 4.952 0.704 L 4.952 3.521 L 6.509 3.521 L 6.933 3.661 L 7.075 4.225 L 7.075 5.915 L 6.933 6.478 L 6.509 6.619 L 4.952 6.619 L 4.952 13.942 L 4.811 14.505 L 4.245 14.646 L 2.122 14.646 C 1.698 14.646 1.415 14.364 1.415 13.942 L 1.415 6.619 L 0.707 6.619 C 0.283 6.619 0 6.337 0 5.915 L 0 4.225 C 0 3.802 0.283 3.521 0.707 3.521 L 1.415 3.521 L 1.273 1.408 Z" fill="rgb(116,187,68)" fill-rule="nonzero" transform="matrix(1 0 0 1 -0.021 0) matrix(1 0 0 1 377.801 61.400)"></path><path d="M 2.122 8.309 L 2.688 8.731 L 3.254 9.013 L 3.679 9.154 L 3.962 9.154 L 4.386 9.154 L 4.952 9.013 L 5.377 8.731 L 5.518 8.309 L 5.377 7.886 L 5.094 7.605 L 4.669 7.464 L 4.103 7.323 C 3.396 7.182 2.83 6.9 2.264 6.619 C 1.839 6.337 1.415 6.056 1.132 5.774 C 0.849 5.492 0.707 5.07 0.566 4.647 C 0.424 4.225 0.424 3.802 0.424 3.38 C 0.424 2.817 0.566 2.394 0.707 1.972 C 0.849 1.549 1.132 1.267 1.556 0.986 C 1.981 0.704 2.405 0.422 2.83 0.282 C 3.396 0.141 3.962 0 4.528 0 C 4.952 0 5.235 0 5.66 0.141 L 6.65 0.422 L 7.499 0.986 L 8.348 1.69 L 8.489 1.972 L 8.348 2.253 L 7.64 2.817 L 6.933 3.38 L 6.65 3.521 L 6.509 3.521 L 6.367 3.38 L 6.226 3.239 L 5.518 2.817 L 4.811 2.676 L 4.103 2.817 L 3.82 3.239 L 3.962 3.661 L 4.386 3.943 L 4.811 4.084 L 5.235 4.225 C 5.801 4.366 6.226 4.647 6.792 4.788 C 7.216 4.929 7.64 5.211 7.923 5.492 C 8.206 5.774 8.489 6.196 8.772 6.619 C 8.914 7.041 9.055 7.605 9.055 8.168 C 9.055 8.731 8.914 9.294 8.631 9.717 C 8.348 10.139 8.065 10.562 7.64 10.844 C 7.216 11.125 6.65 11.407 6.084 11.548 C 5.518 11.689 4.952 11.829 4.245 11.829 C 3.82 11.829 3.537 11.829 3.113 11.689 C 2.688 11.689 2.405 11.548 1.981 11.407 L 0.99 10.844 L 0.141 9.999 L 0 9.717 L 0 9.435 L 0 9.154 L 0.141 9.013 L 1.273 7.886 L 1.698 7.745 L 2.122 8.309 Z" fill="rgb(116,187,68)" fill-rule="nonzero" transform="matrix(1 0 0 1 -0.021 0) matrix(1 0 0 1 386.432 64.216)"></path><path d="M 23.527 13.097 L 23.527 2.394 C 23.527 0.282 23.81 0 25.932 0 C 27.489 0 29.045 0 30.601 0 C 32.299 0 33.007 0.704 33.007 2.394 C 33.007 11.125 33.007 19.856 33.007 28.588 C 33.007 32.108 33.007 35.488 33.007 39.009 C 33.007 40.699 32.582 41.121 30.884 41.121 C 29.328 41.121 27.63 41.121 26.074 41.121 C 25.366 41.121 24.8 40.839 24.517 40.135 C 24.234 39.29 23.81 38.445 23.385 37.46 L 22.395 38.445 C 19.848 40.98 16.877 42.389 13.057 41.684 C 8.387 40.839 4.85 38.445 2.445 34.502 C 0.039 30.418 -0.526 26.053 0.464 21.546 C 1.596 16.336 4.567 12.393 9.661 10.28 C 13.198 8.872 16.877 8.309 20.414 10.562 C 21.263 11.125 21.971 11.829 22.678 12.533 C 22.819 12.393 23.102 12.674 23.527 13.097 Z M 9.095 25.208 C 9.095 30.137 12.208 33.094 16.311 33.094 C 20.839 33.094 24.093 29.855 24.234 25.349 C 24.376 20.701 20.697 17.322 16.452 17.322 C 12.208 17.322 9.095 20.561 9.095 25.208 Z" fill="rgb(0,100,164)" fill-rule="evenodd" transform="matrix(1 0 0 1 -0.021 0) matrix(1 0 0 1 152.791 11.689)"></path><path d="M 25.14 5.236 C 25.565 3.968 25.989 2.701 26.414 1.574 C 26.555 1.152 27.121 0.589 27.546 0.589 C 29.102 0.448 30.517 0.448 32.073 0.589 C 33.347 0.729 33.771 1.434 33.771 2.842 C 33.771 5.799 33.771 8.756 33.771 11.714 C 33.771 17.769 33.771 23.825 33.771 29.88 C 33.771 31.852 33.205 32.274 31.366 32.274 C 29.951 32.274 28.536 32.134 27.121 32.274 C 25.848 32.415 25.282 31.711 24.999 30.725 C 24.716 30.021 24.433 29.458 24.15 28.613 C 23.442 29.317 22.876 29.74 22.31 30.303 C 19.905 32.415 17.217 33.26 13.962 32.697 C 10.284 31.993 7.171 30.584 4.624 27.909 C 0.804 23.966 -0.611 19.178 0.238 13.826 C 0.945 9.32 3.209 5.658 6.888 2.983 C 9.01 1.574 11.274 0.589 13.962 0.166 C 18.49 -0.538 21.886 1.011 24.574 4.532 L 25.14 5.236 Z M 16.226 8.756 C 12.265 8.756 8.869 12.136 9.01 16.643 C 9.01 21.431 11.84 24.529 16.226 24.529 C 20.754 24.529 24.008 21.29 24.15 16.643 C 24.291 12.277 20.612 8.756 16.226 8.756 Z" fill="rgb(0,100,164)" fill-rule="evenodd" transform="matrix(1 0 0 1 -0.021 0) matrix(1 0 0 1 189.664 20.254)"></path><path d="M 8.631 5.22 C 8.914 4.798 9.197 4.657 9.338 4.375 C 11.602 1.277 14.574 -0.131 18.535 0.01 C 24.761 0.291 29.147 5.361 29.996 10.712 C 30.137 11.839 30.279 13.106 30.279 14.233 C 30.279 19.444 30.279 24.795 30.279 30.005 C 30.279 31.555 29.854 31.977 28.298 31.977 L 22.638 31.977 C 21.082 31.977 20.941 31.836 20.941 30.287 C 20.941 25.077 20.941 19.725 20.941 14.515 C 20.941 11.557 18.677 9.163 15.564 8.741 C 13.3 8.459 10.329 10.712 9.763 13.247 C 9.621 13.67 9.763 14.092 9.763 14.374 L 9.763 29.724 C 9.763 31.695 9.338 32.118 7.358 32.118 C 5.518 32.118 3.82 32.118 1.981 32.118 C 0.566 32.118 0 31.695 0 30.287 C 0 20.993 0 11.698 0 2.263 C 0 1.136 0.707 0.432 1.981 0.432 C 3.254 0.432 4.528 0.432 5.66 0.432 C 6.65 0.432 7.216 0.855 7.499 1.699 C 7.923 2.826 8.206 3.812 8.631 5.22 Z" fill="rgb(0,100,164)" fill-rule="evenodd" transform="matrix(1 0 0 1 -0.021 0) matrix(1 0 0 1 227.396 20.551)"></path><path d="M 15.565 17.905 C 15.99 16.779 16.414 15.652 16.697 14.385 C 17.971 10.019 19.386 5.794 20.801 1.429 C 21.084 0.443 21.65 0.02 22.781 0.02 C 25.045 0.02 27.309 0.161 29.432 0.02 C 31.129 0.02 31.129 1.006 30.705 1.992 C 29.573 4.949 28.3 7.907 27.026 10.723 C 24.479 16.638 21.933 22.693 19.527 28.608 C 18.112 32.129 18.395 31.565 15.282 31.565 C 12.17 31.565 12.17 31.565 11.038 28.749 C 7.5 20.018 3.822 11.287 0.284 2.555 C -0.281 1.147 -0.14 -0.12 1.982 0.02 C 3.68 0.161 5.378 0.02 7.076 0.02 C 9.764 -0.12 9.481 0.443 10.189 2.415 C 11.887 7.484 13.443 12.554 15.141 17.624 L 15.565 17.905 Z" fill="rgb(0,100,164)" fill-rule="evenodd" transform="matrix(1 0 0 1 -0.021 0) matrix(1 0 0 1 88.168 20.963)"></path><path d="M 13.583 29.217 C 13.583 32.174 13.583 35.273 13.583 38.23 C 13.583 40.061 13.159 40.483 11.319 40.483 C 9.621 40.483 7.923 40.483 6.226 40.483 C 4.386 40.483 3.82 40.061 3.82 38.089 C 3.82 35.413 3.82 32.597 3.82 29.921 C 3.82 26.541 3.82 23.162 3.82 19.782 C 3.82 18.937 3.679 18.514 2.688 18.514 C 0.566 18.514 0 18.092 0 15.98 C 0 14.712 0 13.304 0 12.036 C 0 10.346 0.566 9.783 2.264 9.783 C 3.82 9.642 3.82 9.642 3.82 8.234 C 3.82 6.967 3.82 5.699 3.82 4.432 C 3.82 3.446 4.245 2.742 5.235 2.319 C 7.216 1.615 9.055 0.911 11.036 0.207 C 12.876 -0.356 13.583 0.207 13.583 2.179 C 13.583 4.432 13.583 6.544 13.583 8.797 C 13.583 9.642 13.866 9.924 14.715 9.924 C 15.705 9.924 16.554 9.924 17.545 9.924 C 18.96 10.065 19.667 10.487 19.667 11.896 C 19.667 13.585 19.667 15.135 19.667 16.824 C 19.667 18.233 18.96 18.796 17.545 18.796 C 16.696 18.796 15.705 18.796 14.857 18.796 C 14.008 18.796 13.583 19.078 13.725 19.923 C 13.583 23.021 13.583 26.119 13.583 29.217 Z" fill="rgb(0,100,164)" fill-rule="evenodd" transform="matrix(1 0 0 1 -0.021 0) matrix(1 0 0 1 259.656 12.045)"></path><path d="M 4.739 0 C 8.984 0.282 13.087 0.704 17.332 1.69 C 21.294 2.676 25.114 3.943 28.651 6.196 C 31.764 8.168 34.311 10.703 35.301 14.364 C 35.443 15.068 35.584 15.913 35.867 16.758 C 36.575 20.42 39.546 21.969 42.517 22.673 C 47.045 23.659 51.29 22.673 55.676 21.687 C 61.901 20.279 67.844 17.744 73.645 15.35 C 74.07 15.209 74.777 15.068 75.06 15.35 C 75.343 15.632 75.626 16.336 75.485 16.899 C 75.343 18.026 75.202 19.152 74.919 20.279 C 74.636 21.828 73.504 22.814 72.089 23.236 C 67.278 24.785 62.609 26.616 57.657 27.883 C 53.695 29.01 49.592 29.714 45.347 29.433 C 42.376 29.292 39.546 28.728 37.141 26.616 C 35.584 25.208 34.735 23.236 34.452 21.265 C 34.028 17.885 32.33 15.491 29.783 13.66 C 26.104 10.844 21.718 9.435 17.332 8.309 C 12.238 7.182 7.145 6.76 1.909 6.76 C 0.353 6.76 -0.213 6.056 0.07 4.506 C 0.212 3.661 0.353 2.957 0.636 2.253 C 1.202 0.563 1.626 0.141 3.607 0.141 L 4.739 0.141" fill="rgb(0,100,164)" fill-rule="evenodd" transform="matrix(1 0 0 1 -0.021 0) matrix(1 0 0 1 0.658 26.194)"></path><path d="M 5.521 0 C 12.454 0.845 19.246 2.253 25.188 6.337 C 28.018 8.309 30.282 10.703 31.272 14.083 C 31.697 15.35 31.697 16.617 32.263 17.885 C 33.678 20.842 36.366 22.11 39.337 22.391 C 45.987 23.095 52.213 21.405 58.438 19.293 C 61.551 18.167 64.664 16.899 67.635 15.632 C 68.484 15.209 70.182 14.646 71.031 15.491 C 71.456 15.913 71.456 17.04 71.597 17.603 C 72.022 19.997 71.314 21.405 69.05 22.25 C 64.098 24.222 59.146 26.053 53.911 27.32 C 50.091 28.306 46.27 29.01 42.309 29.01 C 39.337 29.01 36.366 28.588 33.819 26.616 C 31.838 25.067 30.848 22.955 30.565 20.701 C 30.14 18.026 28.867 15.772 27.028 14.083 C 23.349 10.703 18.821 9.154 14.01 8.027 C 10.19 7.182 6.37 6.619 2.55 6.478 C 2.125 6.478 1.559 6.337 1.135 6.196 C 0.286 5.915 -0.28 5.07 0.144 4.225 C 0.71 3.098 1.276 1.972 2.125 1.127 C 2.974 0 4.248 0 5.521 0 Z" fill="rgb(0,100,164)" fill-rule="evenodd" transform="matrix(1 0 0 1 -0.021 0) matrix(1 0 0 1 4.687 15.491)"></path><path d="M 47.562 29.433 C 44.591 29.573 41.761 29.292 39.214 27.743 C 37.233 26.616 35.96 24.926 35.535 22.673 C 34.969 19.434 33.837 16.477 31.149 14.223 C 28.744 12.252 25.914 10.844 22.943 9.858 C 18.698 8.45 14.312 7.464 9.784 7.182 C 7.52 7.041 5.256 6.9 2.992 6.76 C 0.87 6.619 0.304 6.196 0.163 4.084 C 0.163 3.38 0.021 2.817 0.021 2.112 C -0.12 0.845 0.446 0 1.86 0 C 4.973 0.141 7.945 0.141 11.057 0.563 C 14.312 0.986 17.424 1.69 20.537 2.394 C 24.64 3.521 28.319 5.211 31.715 8.027 C 34.403 10.28 35.96 13.238 36.526 16.758 C 37.092 19.997 39.497 21.828 42.61 22.532 C 46.854 23.518 50.958 22.814 55.061 21.969 C 59.872 20.983 64.541 19.293 69.068 17.462 C 69.776 17.181 70.625 16.758 71.332 16.617 L 72.464 16.758 L 72.464 17.744 C 71.332 19.575 70.342 21.546 69.068 23.236 C 67.795 25.067 65.673 25.771 63.692 26.475 C 59.447 27.743 55.202 28.869 50.816 29.292 C 49.826 29.573 48.694 29.433 47.562 29.433 Z" fill="rgb(116,187,68)" fill-rule="evenodd" transform="matrix(1 0 0 1 -0.021 0) matrix(1 0 0 1 0 37.037)"></path><path d="M 9.338 7.041 C 9.904 7.605 10.47 8.027 11.036 8.59 C 14.998 11.689 18.96 14.787 22.78 18.026 C 25.751 20.561 28.44 23.377 30.279 27.32 C 28.581 26.898 27.025 26.757 25.61 26.194 C 20.658 24.785 16.13 22.532 12.027 19.434 C 6.792 15.35 2.547 10.562 0.424 4.225 C 0.141 3.521 0 2.957 0 2.253 C 0 0.845 0.707 0 1.839 0 C 4.103 0.141 6.509 0.282 8.631 0.845 C 12.168 1.69 15.564 2.535 18.96 3.661 C 23.063 4.929 26.742 7.041 29.854 9.999 C 32.543 12.533 34.099 15.772 34.948 19.293 C 35.514 21.969 35.797 24.504 36.08 27.32 C 33.109 22.25 29.43 17.744 24.902 14.223 C 20.233 10.703 15.281 8.027 9.621 6.619 L 9.338 7.041 Z" fill="rgb(116,187,68)" fill-rule="evenodd" transform="matrix(1 0 0 1 -0.021 0) matrix(1 0 0 1 2.426 48.444)"></path><path d="M 35.091 27.187 C 32.544 27.046 29.998 26.624 27.592 25.638 C 24.904 24.511 23.348 21.836 22.923 19.019 C 22.357 15.498 20.376 12.964 17.688 10.992 C 14.151 8.457 10.189 7.19 5.944 6.204 C 4.388 5.782 2.69 5.5 1.134 5.077 C -0.14 4.655 -0.423 3.81 0.709 2.965 C 2.266 1.698 3.539 -0.133 5.803 0.008 C 7.218 0.008 8.633 0.43 10.047 0.853 C 14.292 2.261 18.254 4.232 21.225 7.753 C 22.923 9.725 23.631 12.119 24.197 14.654 C 24.762 17.752 26.885 19.442 29.856 20.287 C 33.252 21.272 36.789 20.991 40.185 20.427 C 46.411 19.442 52.212 17.329 57.871 15.076 C 59.428 14.513 60.418 14.794 61.126 16.343 C 61.267 16.766 61.409 17.329 61.692 17.752 C 62.116 18.597 62.399 19.864 61.55 20.568 C 61.126 20.991 60.56 21.132 60.135 21.272 C 57.871 22.117 55.607 22.962 53.202 23.666 C 47.542 25.497 41.175 27.469 35.091 27.187 Z" fill="rgb(0,100,164)" fill-rule="evenodd" transform="matrix(1 0 0 1 -0.021 0) matrix(1 0 0 1 12.329 6.329)"></path><path d="M 22.638 21.843 C 19.667 21.843 16.696 21.42 14.149 19.871 C 11.744 18.463 10.753 16.069 10.329 13.534 C 9.904 10.295 8.206 7.901 5.801 6.07 C 4.528 5.085 3.113 4.521 1.839 3.536 C 1.132 3.113 0.566 2.409 0 1.705 C 0.566 1.282 1.132 0.86 1.839 0.578 C 5.377 -0.689 6.792 0.156 9.055 2.831 C 10.47 4.662 11.036 6.915 11.461 9.169 C 12.027 11.985 14.008 13.675 16.696 14.52 C 20.375 15.647 24.195 15.506 27.874 14.661 C 31.977 13.675 35.939 12.548 39.9 11.422 C 41.032 11.14 42.023 11.422 42.73 12.267 C 43.296 12.971 44.004 13.816 44.57 14.661 C 45.135 15.506 44.852 16.632 43.862 16.914 C 40.749 17.9 37.778 19.026 34.665 19.871 C 31.835 20.575 28.864 20.998 26.034 21.561 C 24.902 21.702 23.77 21.702 22.638 21.843 Z" fill="rgb(116,187,68)" fill-rule="evenodd" transform="matrix(1 0 0 1 -0.021 0) matrix(1 0 0 1 24.923 0.971)"></path><path d="M 12.451 12.393 C 9.48 12.252 6.509 11.829 4.103 9.858 C 1.839 8.168 0.99 5.774 0.424 3.098 C 0.283 2.394 0.141 1.831 0 1.127 L 0.141 0 C 0.707 0 1.273 0 1.839 0.141 L 2.547 0.845 C 3.962 3.661 6.509 4.647 9.338 5.07 C 12.734 5.633 15.988 5.07 19.384 4.647 C 20.658 4.506 22.073 4.788 23.346 5.211 C 24.619 5.633 25.61 6.619 26.742 7.323 C 27.732 8.027 27.732 9.013 26.459 9.435 C 24.195 10.139 21.931 10.844 19.667 11.407 C 17.12 11.829 14.857 12.111 12.451 12.393 Z" fill="rgb(116,187,68)" fill-rule="evenodd" transform="matrix(1 0 0 1 -0.021 0) matrix(1 0 0 1 34.686 0)"></path><path d="M 0 8.786 C 2.122 6.111 4.811 4.28 7.64 2.872 C 10.612 1.323 13.866 0.478 17.262 0.055 C 18.252 -0.086 19.243 0.055 20.233 0.337 C 20.658 0.478 21.082 1.041 21.507 1.323 L 20.658 2.168 C 16.271 4.843 11.461 6.674 6.367 7.801 C 4.669 8.223 2.971 8.505 1.273 8.786 C 0.849 8.786 0.424 8.786 0 8.786 Z" fill="rgb(116,187,68)" fill-rule="evenodd" transform="matrix(1 0 0 1 -0.021 0) matrix(1 0 0 1 40.629 67.259)"></path><path d="M 33.98 2.181 C 33.98 1.195 33.556 0.491 32.565 0.491 C 31.009 0.35 29.452 0.35 27.896 0.491 C 27.33 0.491 26.764 1.336 26.481 1.759 C 26.057 2.744 25.774 3.871 25.208 5.138 C 24.783 4.716 24.642 4.434 24.359 4.153 C 21.953 1.195 18.841 -0.354 14.879 0.069 C 10.21 0.632 6.389 2.603 3.418 6.265 C 1.579 8.659 0.588 11.194 0.164 14.151 C -0.261 17.109 0.164 19.784 1.154 22.46 C 2.852 26.685 5.824 29.783 10.21 31.473 C 12.757 32.458 15.445 33.163 18.275 32.318 C 20.114 31.754 21.67 30.628 23.085 29.22 C 23.368 28.938 23.651 28.656 24.076 28.375 C 24.5 29.36 24.783 30.064 25.066 30.909 C 25.349 31.614 25.915 32.036 26.623 31.895 C 28.179 31.895 29.735 31.895 31.292 31.895 C 33.273 31.895 33.697 31.473 33.697 29.501 C 33.697 21.333 33.697 13.165 33.697 4.857 C 33.98 4.153 34.122 3.167 33.98 2.181 Z M 16.435 24.291 C 12.191 24.15 9.219 21.192 9.219 16.545 C 9.219 11.898 12.474 8.377 16.718 8.518 C 20.963 8.659 24.5 12.18 24.359 16.545 C 24.359 21.192 20.68 24.431 16.435 24.291 Z" fill="rgb(0,100,164)" fill-rule="evenodd" transform="matrix(1 0 0 1 -0.021 0) matrix(1 0 0 1 280.150 20.492)"></path><path d="M 22.606 19.493 C 24.587 19.493 26.709 19.493 28.69 19.353 C 30.671 19.212 31.378 18.649 31.378 16.677 C 31.661 10.481 29.115 5.552 23.879 2.313 C 19.776 -0.222 15.39 -0.645 10.862 0.904 C 5.061 2.876 1.524 7.101 0.392 13.156 C -0.598 17.944 0.251 22.451 3.363 26.253 C 7.325 31.182 12.419 33.294 18.786 32.59 C 22.323 32.168 25.436 30.619 27.983 28.225 C 28.832 27.38 28.832 26.535 28.124 25.69 C 27.275 24.704 26.426 23.718 25.577 22.873 C 24.587 21.888 23.879 21.888 22.748 22.732 C 19.918 24.845 16.805 25.549 13.409 24.422 C 11.145 23.718 9.447 21.465 9.447 19.493 L 10.579 19.493 C 14.683 19.493 18.644 19.493 22.606 19.493 Z M 16.805 7.805 C 18.927 7.946 21.616 10.058 22.323 12.311 L 9.872 12.311 C 11.004 9.354 13.692 7.664 16.805 7.805 Z" fill="rgb(0,100,164)" fill-rule="evenodd" transform="matrix(1 0 0 1 -0.021 0) matrix(1 0 0 1 117.915 20.360)"></path></svg>